<svg width="219" height="219" viewBox="0 0 219 219" fill="none" xmlns="http://www.w3.org/2000/svg">
  <path d="M46.4277 60.9131L43.0073 85.9797L82.5341 91.3731L85.9544 66.3065L46.4277 60.9131Z" fill="#EBEBEB"/>
  <path d="M46.4282 60.9083C47.8167 62.6603 49.2446 64.3378 50.6462 66.0591C52.0478 67.7805 53.4932 69.4449 54.9298 71.118C56.4234 72.87 57.9301 74.622 59.4324 76.3346C59.4806 76.3872 59.52 76.4441 59.5682 76.5011C60.9027 78.0253 62.2415 79.5481 63.5847 81.0694L63.7818 81.2884L64.0271 81.1307C65.7265 80.024 67.423 78.9115 69.1166 77.7932C69.177 77.7583 69.2355 77.7203 69.2918 77.6793C71.2161 76.4178 73.1316 75.1433 75.0384 73.8555C76.8605 72.6291 78.6913 71.3808 80.509 70.1325C82.3267 68.8842 84.1488 67.6097 85.9533 66.3C84.0787 67.3775 82.2216 68.5207 80.3601 69.6332C78.4986 70.7457 76.6415 71.9064 74.7887 73.0715C72.7272 74.3534 70.6657 75.6572 68.6042 76.9829C67.0595 77.964 65.5148 78.9509 63.9701 79.9437C62.7569 78.5772 61.5348 77.2019 60.3084 75.8484C58.6791 74.0322 57.0424 72.2247 55.3985 70.426C53.9209 68.8142 52.439 67.2082 50.9528 65.608C49.4241 64.0487 47.9437 62.45 46.4282 60.9083Z" fill="white"/>
  <path d="M68.4595 77.5479C68.4752 77.5629 68.4898 77.579 68.5033 77.596L69.0552 78.2092C69.9312 79.1816 70.8378 80.1189 71.762 81.0387C72.892 82.1688 74.0527 83.2681 75.2222 84.3588C76.3917 85.4494 77.583 86.5006 78.805 87.5343C80.0271 88.5679 81.2578 89.5928 82.5456 90.5477C81.49 89.3344 80.3555 88.1869 79.2474 87.0437C78.1393 85.9005 76.9523 84.8143 75.7916 83.728C74.6309 82.6418 73.422 81.5775 72.2044 80.5394C71.2364 79.7116 70.2465 78.8969 69.226 78.1173C68.9924 77.9333 68.7558 77.7537 68.5164 77.5785L68.4595 77.5479Z" fill="white"/>
  <path d="M43.209 85.1866C44.7113 84.6084 46.1786 83.9558 47.624 83.2856C49.0694 82.6155 50.5017 81.8972 51.9296 81.1789C53.3574 80.4605 54.7634 79.6984 56.1519 78.91C57.2863 78.2705 58.4076 77.596 59.507 76.9127C59.7479 76.7638 59.98 76.6149 60.2121 76.4747L60.2647 76.4397C60.2432 76.4453 60.2206 76.4453 60.199 76.4397L59.3668 76.777C58.1798 77.2544 57.0147 77.78 55.8628 78.3143C54.413 78.9889 52.9851 79.6984 51.5616 80.4255C50.1381 81.1526 48.7322 81.9059 47.3393 82.6987C45.9465 83.4915 44.5536 84.2974 43.209 85.1866Z" fill="white"/>
  <path d="M56.5008 24.6389L23.811 32.9349L29.072 53.6653L61.7618 45.3693L56.5008 24.6389Z" fill="#EBEBEB"/>
  <path d="M23.8096 32.9332C25.4521 33.8618 27.1033 34.729 28.7502 35.6313C30.3971 36.5336 32.0527 37.3833 33.7084 38.2593C35.4341 39.1616 37.1642 40.042 38.8943 40.9223L39.052 41.0099L43.6466 43.3182L43.87 43.4277L44.0145 43.2262C44.9956 41.8202 45.968 40.4099 46.9447 38.9995C46.9808 38.9516 47.0145 38.9019 47.0455 38.8506C48.1551 37.2563 49.253 35.6503 50.3392 34.0326C51.3817 32.4952 52.4197 30.9359 53.449 29.381C54.4783 27.8261 55.5032 26.2493 56.515 24.655C55.385 26.0917 54.2944 27.5765 53.1862 29.035C52.0781 30.4936 50.9962 31.9959 49.91 33.4939C48.7011 35.1553 47.4966 36.8314 46.2965 38.5221C45.4 39.7806 44.5022 41.0435 43.6028 42.3108C42.2012 41.61 40.8083 40.9311 39.4199 40.2566C37.5628 39.3456 35.7056 38.4462 33.8485 37.5585C32.1841 36.7657 30.5154 35.9773 28.8466 35.2064C27.1778 34.4356 25.4915 33.6603 23.8096 32.9332Z" fill="white"/>
  <path d="M46.3579 38.9819C46.373 38.9924 46.3892 39.0012 46.4061 39.0082L47.0324 39.3148C48.0282 39.7966 49.0341 40.2492 50.0503 40.6726C51.2942 41.207 52.5512 41.6975 53.8127 42.1793C55.0741 42.6611 56.3443 43.1123 57.6277 43.5371C58.911 43.962 60.2031 44.3737 61.5171 44.7154C60.3038 44.0978 59.0687 43.5503 57.8291 43.0203C56.5896 42.4903 55.3194 41.9998 54.0623 41.518C52.8053 41.0362 51.5263 40.5806 50.243 40.1558C49.2224 39.8141 48.1888 39.4856 47.1419 39.1966C46.901 39.1265 46.6601 39.0652 46.4149 38.9995L46.3579 38.9819Z" fill="white"/>
  <path d="M28.9824 52.998C29.9767 52.0738 30.9184 51.0971 31.8382 50.1072C32.758 49.1173 33.6603 48.1099 34.5494 47.0981C35.4385 46.0864 36.3014 45.0352 37.138 43.9796C37.8256 43.1036 38.5002 42.2276 39.1396 41.3516L39.547 40.7778C39.547 40.7778 39.547 40.7471 39.5776 40.734L39.5338 40.7734C39.3499 40.9486 39.1659 41.1194 38.9863 41.299C38.2067 42.048 37.4577 42.8276 36.7175 43.6204C35.7933 44.6059 34.8998 45.6177 34.015 46.6339C33.1303 47.65 32.263 48.6925 31.4265 49.7524C30.5899 50.8124 29.7533 51.8592 28.9824 52.998Z" fill="white"/>
  <path d="M191.973 114.541L158.477 118.47L160.969 139.712L194.465 135.783L191.973 114.541Z" fill="#EBEBEB"/>
  <path d="M158.473 118.479C159.979 119.613 161.504 120.691 163.015 121.808C164.526 122.925 166.059 123.976 167.587 125.045C169.116 126.113 170.78 127.265 172.379 128.365L172.524 128.47C173.934 129.436 175.35 130.401 176.772 131.365L176.983 131.501L177.149 131.321C178.317 130.057 179.47 128.788 180.609 127.515C180.653 127.474 180.694 127.43 180.732 127.384C182.037 125.947 183.336 124.499 184.63 123.039C185.865 121.654 187.096 120.244 188.322 118.838C189.549 117.432 190.771 116.004 191.971 114.55C190.657 115.829 189.387 117.178 188.095 118.461C186.802 119.745 185.532 121.089 184.258 122.452C182.842 123.935 181.43 125.437 180.022 126.959C178.967 128.089 177.915 129.227 176.86 130.362C175.572 129.486 174.284 128.632 172.997 127.782C171.28 126.635 169.557 125.499 167.828 124.374C166.287 123.367 164.738 122.371 163.181 121.387C161.591 120.419 160.041 119.421 158.473 118.479Z" fill="white"/>
  <path d="M180.018 127.458L180.062 127.489C180.255 127.62 180.452 127.751 180.644 127.874C181.569 128.487 182.506 129.065 183.461 129.626C184.621 130.314 185.804 130.966 186.991 131.615C188.178 132.263 189.378 132.867 190.596 133.459C191.813 134.05 193.035 134.628 194.292 135.136C193.176 134.365 192.019 133.66 190.859 132.977C189.698 132.293 188.507 131.632 187.324 130.988C186.141 130.344 184.932 129.727 183.719 129.135C182.751 128.662 181.766 128.203 180.767 127.778C180.539 127.678 180.307 127.582 180.071 127.489L180.018 127.458Z" fill="white"/>
  <path d="M160.965 139.034C162.073 138.246 163.155 137.401 164.175 136.546C165.196 135.692 166.243 134.794 167.241 133.918C168.24 133.042 169.247 132.11 170.22 131.168C171.013 130.406 171.792 129.63 172.546 128.825L173.027 128.308C173.04 128.296 173.052 128.282 173.062 128.268C173.048 128.281 173.032 128.292 173.014 128.299L172.405 128.737C171.529 129.381 170.688 130.051 169.847 130.739C168.801 131.615 167.785 132.491 166.781 133.367C165.778 134.243 164.775 135.176 163.803 136.117C162.831 137.059 161.876 138.023 160.965 139.034Z" fill="white"/>
  <path d="M165.621 69.9136L159.87 70.0362L156.953 70.0844C155.976 70.1063 154.995 70.0844 154.018 70.1107H153.826V69.9136L153.799 65.0123V64.7933H154.018L159.817 64.8196C161.749 64.8196 163.685 64.8722 165.617 64.8941H165.739V65.0123C165.739 65.8445 165.704 66.6724 165.682 67.487L165.621 69.9136ZM165.621 69.9136L165.564 67.452C165.542 66.6329 165.516 65.827 165.507 65.0255L165.625 65.1437C163.694 65.1656 161.758 65.2138 159.826 65.2182L154.027 65.2445L154.246 65.0255V69.9267L154.049 69.7296C155.004 69.7296 155.959 69.7296 156.918 69.7559L159.8 69.8041L165.621 69.9136Z" fill="#EBEBEB"/>
  <path d="M159.152 76.0937L153.401 76.2164L150.484 76.2646C149.511 76.2646 148.53 76.2646 147.553 76.2908H147.361V76.0937L147.339 71.1925V70.956H147.558L153.357 70.9823C155.289 70.9823 157.225 71.0348 159.156 71.0567H159.279V71.175C159.279 72.0072 159.244 72.835 159.222 73.6497L159.152 76.0937ZM159.152 76.0937L159.09 73.619C159.069 72.8 159.042 71.9941 159.033 71.1925L159.152 71.3108C157.22 71.3327 155.284 71.3809 153.353 71.3852L147.553 71.4115L147.772 71.1925L147.746 76.0937L147.553 75.8966C148.508 75.8966 149.463 75.8966 150.418 75.9229L153.3 75.9711L159.152 76.0937Z" fill="#EBEBEB"/>
  <path d="M172.09 76.0937L166.344 76.2164L163.427 76.2646C162.45 76.2646 161.469 76.2646 160.492 76.2908H160.308V76.0937L160.282 71.1925V70.956H160.501L166.3 70.9823C168.236 70.9823 170.167 71.0348 172.099 71.0567H172.222V71.175C172.222 72.0072 172.182 72.835 172.16 73.6497L172.09 76.0937ZM172.09 76.0937L172.029 73.619C172.029 72.8 171.981 71.9941 171.972 71.1925L172.09 71.3108C170.159 71.3327 168.227 71.3809 166.291 71.3852L160.492 71.4115L160.711 71.1925L160.689 76.0937L160.492 75.8966C161.447 75.8966 162.402 75.8966 163.361 75.9229L166.243 75.9711L172.09 76.0937Z" fill="#EBEBEB"/>
  <path d="M194.187 25.531L188.436 25.6536L185.519 25.7018C184.543 25.7018 183.566 25.7018 182.589 25.7281H182.392V25.531L182.37 20.6298V20.4108H182.594L188.393 20.437C190.324 20.437 192.256 20.4896 194.192 20.5115H194.31V20.6298C194.31 21.462 194.271 22.2898 194.253 23.1045L194.187 25.531ZM194.187 25.531L194.122 23.0563C194.122 22.2372 194.073 21.4313 194.065 20.6298L194.187 20.748C192.251 20.7699 190.32 20.8181 188.388 20.8225L182.589 20.8488L182.804 20.6298L182.782 25.531L182.589 25.3339C183.544 25.3339 184.494 25.3339 185.454 25.3602L188.34 25.404L194.187 25.531Z" fill="#EBEBEB"/>
  <path d="M200.657 31.7112L194.91 31.8338L191.993 31.882C191.021 31.882 190.039 31.882 189.063 31.9083H188.866V31.7112L188.844 26.8099V26.5909H189.063L194.862 26.6172C196.793 26.6172 198.725 26.6698 200.661 26.6917H200.779V26.8099C200.779 27.6421 200.74 28.47 200.722 29.2846L200.657 31.7112ZM200.657 31.7112L200.604 29.2365C200.582 28.4174 200.551 27.6115 200.543 26.8099L200.665 26.9282C198.729 26.9501 196.798 26.9983 194.866 27.0027L189.067 27.0289L189.286 26.8099L189.26 31.7112L189.067 31.5141C190.022 31.5141 190.972 31.5141 191.932 31.5403L194.814 31.5885L200.657 31.7112Z" fill="#EBEBEB"/>
  <path d="M29.9418 25.5354L24.1952 25.658L21.2781 25.7062C20.3014 25.7281 19.3203 25.7062 18.3435 25.7325H18.1508V25.5354L18.1245 20.6342V20.4152H18.3435L24.1426 20.4458C26.0786 20.4458 28.0102 20.494 29.9418 20.5159H30.0644V20.6342C30.0644 21.4664 30.025 22.2942 30.0031 23.1132L29.9418 25.5354ZM29.9418 25.5354L29.8804 23.0607C29.8804 22.246 29.8322 21.4357 29.8235 20.6342L29.9418 20.7568C28.0102 20.7568 26.0786 20.8225 24.1426 20.8269L18.3435 20.8532L18.5625 20.6342L18.5406 25.5354L18.3435 25.3427C19.2984 25.3427 20.2532 25.3427 21.2124 25.3427L24.0901 25.404L29.9418 25.5354Z" fill="#EBEBEB"/>
  <path d="M189.058 139.507L194.805 139.385L197.722 139.337C198.699 139.315 199.68 139.337 200.656 139.31H200.849V139.507L200.875 144.409V144.628H200.656L194.857 144.597C192.921 144.597 190.99 144.549 189.058 144.527H188.936V144.409C188.936 143.576 188.975 142.749 188.992 141.929L189.058 139.507ZM189.058 139.507L189.12 141.982C189.12 142.797 189.168 143.607 189.176 144.409L189.058 144.286C190.99 144.264 192.921 144.22 194.857 144.216L200.656 144.19L200.437 144.409L200.459 139.507L200.656 139.7C199.702 139.7 198.747 139.7 197.788 139.678L194.905 139.63L189.058 139.507Z" fill="#EBEBEB"/>
  <path d="M18.3433 139.507L24.0898 139.385L27.0069 139.337C27.9793 139.315 28.9604 139.337 29.9371 139.31H30.1342V139.507V144.409V144.628H29.9152L24.1161 144.597C22.1845 144.597 20.253 144.549 18.317 144.527H18.1987V144.409C18.1987 143.576 18.2382 142.749 18.2557 141.929L18.3433 139.507ZM18.3433 139.507L18.4046 141.982C18.4046 142.797 18.4572 143.607 18.4659 144.409L18.3433 144.286C20.2792 144.264 22.2108 144.22 24.1424 144.216L29.9415 144.19L29.7225 144.409L29.7488 139.507L29.9415 139.7C28.9867 139.7 28.0362 139.7 27.077 139.678L24.195 139.63L18.3433 139.507Z" fill="#EBEBEB"/>
  <path d="M24.8126 133.327L30.5635 133.205L33.4806 133.156C34.4574 133.134 35.4341 133.156 36.4108 133.13H36.6079V133.327V138.228V138.447H36.3846L30.6117 138.408C28.6801 138.408 26.7486 138.36 24.8126 138.338H24.6943V138.22C24.6943 137.387 24.7338 136.56 24.7513 135.741L24.8126 133.327ZM24.8126 133.327L24.8783 135.802C24.8783 136.617 24.9265 137.427 24.9352 138.228L24.8126 138.106C26.7486 138.084 28.6801 138.04 30.6117 138.036L36.4108 138.009L36.1962 138.228V133.327L36.3889 133.52C35.4341 133.52 34.4836 133.52 33.5244 133.52L30.6599 133.45L24.8126 133.327Z" fill="#EBEBEB"/>
  <path d="M141.811 59.66L201.489 59.66V56.1165L141.811 56.1165V59.66Z" fill="#EBEBEB"/>
  <path d="M196.96 59.66H193.417V71.3809H196.96V59.66Z" fill="#EBEBEB"/>
  <path d="M196.96 59.66H193.417V63.2822H196.96V59.66Z" fill="#DBDBDB"/>
  <path d="M149.884 59.66H146.34V71.3809H149.884V59.66Z" fill="#EBEBEB"/>
  <path d="M149.884 59.66H146.34V63.2822H149.884V59.66Z" fill="#DBDBDB"/>
  <path d="M186.409 56.1165V33.5332H180.723V56.1165H186.409Z" fill="#C7C7C7"/>
  <path d="M186.413 34.8122V32.3287H180.728V34.8122H186.413Z" fill="#DBDBDB"/>
  <path d="M186.409 38.9075V37.9877H180.723V38.9075H186.409Z" fill="#DBDBDB"/>
  <path d="M186.413 53.16V50.6766H180.018V53.16H186.413Z" fill="#DBDBDB"/>
  <path d="M180.723 56.121V29.7753H176.75V56.121H180.723Z" fill="#DBDBDB"/>
  <path d="M179.948 42.3808V32.2499H177.561V42.3808H179.948Z" fill="#EBEBEB"/>
  <path d="M151.269 56.1348L170.005 37.6132L167.212 34.7879L148.476 53.3095L151.269 56.1348Z" fill="#C7C7C7"/>
  <path d="M155.098 51.2125L162.303 44.0902L160.625 42.3926L153.42 49.5149L155.098 51.2125Z" fill="#DBDBDB"/>
  <path d="M176.75 56.1253V36.113H170.001V56.1253H176.75Z" fill="#A6A6A6"/>
  <path d="M176.746 54.001V52.1351H169.997V54.001H176.746Z" fill="#C7C7C7"/>
  <path d="M176.746 50.9131V50.1904H169.997V50.9131H176.746Z" fill="#C7C7C7"/>
  <path d="M191.073 56.1253V37.3176H186.409V56.1253H191.073Z" fill="#A6A6A6"/>
  <path d="M191.073 54.128V52.376H186.409V54.128H191.073Z" fill="#C7C7C7"/>
  <path d="M191.069 42.9415V41.1895H186.404V42.9415H191.069Z" fill="#C7C7C7"/>
  <path d="M191.073 44.8249V44.146H186.409V44.8249H191.073Z" fill="#C7C7C7"/>
  <path d="M17.5068 196.456L40.5062 196.351L63.5056 196.312L109.5 196.237L155.494 196.312L178.494 196.351L201.493 196.456L178.494 196.566L155.494 196.601L109.5 196.675L63.5056 196.601L40.5062 196.561L17.5068 196.456Z" fill="#263238"/>
  <path d="M179.199 157.754C185.581 164 186.645 173.667 185.305 182.134C185.27 182.326 184.972 182.274 184.972 182.094C184.972 180.167 185.033 178.257 185.024 176.352C184.989 176.264 184.963 176.181 184.928 176.094C183.264 174.885 181.731 173.518 180.78 171.639C179.716 169.545 179.295 167.18 178.481 164.99C178.406 164.78 178.63 164.841 178.774 164.951C182.659 167.815 183.894 170.894 185.007 175.025C184.984 172.871 184.758 170.724 184.332 168.612C183.496 164.706 181.836 160.834 179.028 157.934C179.004 157.911 178.99 157.88 178.99 157.847C178.989 157.815 179.001 157.783 179.024 157.759C179.046 157.735 179.078 157.721 179.11 157.72C179.143 157.72 179.175 157.732 179.199 157.754V157.754Z" fill="#263238"/>
  <path d="M177.999 158.482C176.9 158.521 176.212 160.273 175.371 160.785C175.281 160.858 175.177 160.912 175.065 160.942C174.954 160.972 174.837 160.978 174.723 160.961C174.608 160.943 174.499 160.901 174.402 160.839C174.304 160.776 174.221 160.694 174.158 160.597C173.308 159.41 174.473 157.969 175.568 157.137C174.784 157.457 174.136 158.013 173.291 158.184C173.183 158.219 173.068 158.23 172.956 158.217C172.843 158.204 172.735 158.167 172.637 158.108C172.54 158.05 172.457 157.971 172.393 157.878C172.328 157.784 172.285 157.678 172.266 157.566C171.893 155.954 173.917 155.236 175.305 155.201C174.631 154.737 172.704 153.449 173.729 152.836C174.753 152.223 177.031 154.027 177.771 154.627C178.853 155.503 180.15 156.817 180.198 158.201C180.25 159.809 178.844 158.819 177.999 158.482Z" fill="#A3EBFC"/>
  <path opacity="0.1" d="M177.999 158.482C176.9 158.521 176.212 160.273 175.371 160.785C175.281 160.858 175.177 160.912 175.065 160.942C174.954 160.972 174.837 160.978 174.723 160.961C174.608 160.943 174.499 160.901 174.402 160.839C174.304 160.776 174.221 160.694 174.158 160.597C173.308 159.41 174.473 157.969 175.568 157.137C174.784 157.457 174.136 158.013 173.291 158.184C173.183 158.219 173.068 158.23 172.956 158.217C172.843 158.204 172.735 158.167 172.637 158.108C172.54 158.05 172.457 157.971 172.393 157.878C172.328 157.784 172.285 157.678 172.266 157.566C171.893 155.954 173.917 155.236 175.305 155.201C174.631 154.737 172.704 153.449 173.729 152.836C174.753 152.223 177.031 154.027 177.771 154.627C178.853 155.503 180.15 156.817 180.198 158.201C180.25 159.809 178.844 158.819 177.999 158.482Z" fill="black"/>
  <path d="M178.314 158.753C176.913 158.114 174.215 159.033 173.987 158.503C173.523 157.422 175.677 156.677 176.838 156.537C175.769 156.243 173.715 155.783 173.772 154.75C173.851 153.488 176.921 154.575 178.476 155.766C180.434 157.268 180.421 158.714 180.097 159.007C179.659 159.401 178.546 158.858 178.314 158.753Z" fill="#A3EBFC"/>
  <path d="M193.732 157.137C187.118 163.137 185.677 172.756 186.702 181.266C186.728 181.459 187.026 181.42 187.035 181.236C187.105 179.313 187.122 177.399 187.201 175.498L187.306 175.244C189.019 174.101 190.6 172.791 191.621 170.951C192.764 168.897 193.272 166.549 194.17 164.381C194.257 164.176 194.03 164.228 193.881 164.329C189.891 167.044 188.537 170.075 187.267 174.149C187.374 171.998 187.682 169.861 188.187 167.767C189.172 163.895 190.977 160.089 193.881 157.299C194.003 157.203 193.846 157.027 193.732 157.137Z" fill="#263238"/>
  <path d="M194.91 157.908C196.005 157.987 196.627 159.765 197.464 160.312C197.55 160.389 197.652 160.446 197.763 160.48C197.873 160.515 197.99 160.526 198.105 160.512C198.22 160.498 198.33 160.461 198.43 160.401C198.529 160.342 198.615 160.262 198.681 160.168C199.557 159.016 198.467 157.514 197.407 156.664C198.173 157.014 198.799 157.606 199.636 157.798C199.743 157.838 199.857 157.854 199.97 157.846C200.084 157.837 200.194 157.805 200.294 157.75C200.394 157.695 200.48 157.619 200.548 157.528C200.616 157.436 200.664 157.331 200.687 157.22C201.125 155.626 199.124 154.829 197.739 154.741C198.432 154.303 200.407 153.103 199.404 152.437C198.401 151.771 196.062 153.501 195.3 154.075C194.183 154.912 192.838 156.178 192.738 157.553C192.602 159.147 194.034 158.214 194.91 157.908Z" fill="#A3EBFC"/>
  <path opacity="0.1" d="M194.91 157.908C196.005 157.987 196.627 159.765 197.464 160.312C197.55 160.389 197.652 160.446 197.763 160.48C197.873 160.515 197.99 160.526 198.105 160.512C198.22 160.498 198.33 160.461 198.43 160.401C198.529 160.342 198.615 160.262 198.681 160.168C199.557 159.016 198.467 157.514 197.407 156.664C198.173 157.014 198.799 157.606 199.636 157.798C199.743 157.838 199.857 157.854 199.97 157.846C200.084 157.837 200.194 157.805 200.294 157.75C200.394 157.695 200.48 157.619 200.548 157.528C200.616 157.436 200.664 157.331 200.687 157.22C201.125 155.626 199.124 154.829 197.739 154.741C198.432 154.303 200.407 153.103 199.404 152.437C198.401 151.771 196.062 153.501 195.3 154.075C194.183 154.912 192.838 156.178 192.738 157.553C192.602 159.147 194.034 158.214 194.91 157.908Z" fill="black"/>
  <path d="M194.573 158.166C196.001 157.584 198.659 158.604 198.909 158.083C199.417 157.019 197.293 156.195 196.132 156.007C197.214 155.757 199.286 155.372 199.259 154.338C199.233 153.077 196.123 154.045 194.525 155.175C192.51 156.603 192.466 158.048 192.773 158.35C193.206 158.766 194.341 158.263 194.573 158.166Z" fill="#A3EBFC"/>
  <path d="M186.969 172.984C186.52 176.193 185.834 179.364 184.915 182.471C184.909 182.501 184.897 182.53 184.88 182.556C184.863 182.582 184.84 182.604 184.815 182.621C184.789 182.639 184.76 182.651 184.729 182.657C184.699 182.663 184.668 182.663 184.637 182.657C184.607 182.651 184.578 182.639 184.552 182.622C184.526 182.604 184.504 182.582 184.486 182.556C184.469 182.531 184.457 182.502 184.451 182.471C184.445 182.441 184.445 182.409 184.451 182.379C184.889 179.453 185.677 176.584 186.111 173.658C186.586 170.701 186.757 167.702 186.619 164.71C186.343 159.782 185.003 154.544 181.801 150.694C181.731 150.606 181.88 150.475 181.954 150.558C188.389 158.065 187.368 167.268 187.359 168.078C188.27 164.973 189.212 161.412 192.659 158.245C192.808 158.109 192.922 158.175 192.9 158.407C192.282 164.171 190.679 167.167 187.337 170.259C187.232 171.175 187.114 172.086 186.969 172.984Z" fill="#263238"/>
  <path d="M181.731 151.548C180.574 151.031 178.976 152.507 177.828 152.608C177.698 152.638 177.563 152.641 177.432 152.616C177.301 152.591 177.176 152.538 177.067 152.462C176.957 152.386 176.865 152.287 176.796 152.172C176.727 152.058 176.684 151.93 176.667 151.798C176.383 150.146 178.327 149.213 179.874 148.92C178.897 148.859 177.942 149.117 176.987 148.859C176.857 148.842 176.733 148.797 176.622 148.727C176.511 148.658 176.417 148.565 176.345 148.456C176.273 148.347 176.225 148.223 176.205 148.094C176.186 147.965 176.194 147.833 176.229 147.707C176.667 145.845 179.116 146.117 180.574 146.783C180.11 145.959 178.748 143.664 180.136 143.533C181.525 143.401 182.966 146.432 183.43 147.426C184.113 148.885 184.792 150.9 184.148 152.354C183.399 154.058 182.436 152.323 181.731 151.548Z" fill="#A3EBFC"/>
  <path opacity="0.1" d="M181.731 151.548C180.574 151.031 178.976 152.507 177.828 152.608C177.698 152.638 177.563 152.641 177.432 152.616C177.301 152.591 177.176 152.538 177.067 152.462C176.957 152.386 176.865 152.287 176.796 152.172C176.727 152.058 176.684 151.93 176.667 151.798C176.383 150.146 178.327 149.213 179.874 148.92C178.897 148.859 177.942 149.117 176.987 148.859C176.857 148.842 176.733 148.797 176.622 148.727C176.511 148.658 176.417 148.565 176.345 148.456C176.273 148.347 176.225 148.223 176.205 148.094C176.186 147.965 176.194 147.833 176.229 147.707C176.667 145.845 179.116 146.117 180.574 146.783C180.11 145.959 178.748 143.664 180.136 143.533C181.525 143.401 182.966 146.432 183.43 147.426C184.113 148.885 184.792 150.9 184.148 152.354C183.399 154.058 182.436 152.323 181.731 151.548Z" fill="black"/>
  <path d="M181.923 151.986C180.789 150.619 177.543 150.212 177.543 149.546C177.605 148.193 180.215 148.504 181.485 148.942C180.522 148.101 178.625 146.59 179.208 145.547C179.926 144.277 182.563 146.949 183.588 148.968C184.862 151.513 184.118 153.011 183.636 153.147C182.988 153.344 182.112 152.218 181.923 151.986Z" fill="#A3EBFC"/>
  <path d="M191.2 174.718L194.034 196.408H176.768C177.123 194.485 180.338 174.692 180.338 174.692L191.2 174.718Z" fill="#A3EBFC"/>
  <path d="M164.101 25.5354H88.6293C87.6172 25.5446 86.6168 25.7531 85.6852 26.149C84.7537 26.545 83.9093 27.1206 83.2004 27.843C82.4914 28.5654 81.9317 29.4204 81.5533 30.3592C81.1749 31.298 80.9852 32.3021 80.995 33.3143V188.677C80.9775 190.721 81.7716 192.688 83.2029 194.146C84.6343 195.604 86.5859 196.435 88.6293 196.456H164.101C166.146 196.436 168.099 195.606 169.532 194.148C170.965 192.689 171.761 190.722 171.744 188.677V33.3143C171.753 32.3016 171.563 31.297 171.184 30.3579C170.805 29.4188 170.244 28.5636 169.534 27.8412C168.825 27.1188 167.979 26.5433 167.047 26.1477C166.115 25.752 165.114 25.544 164.101 25.5354V25.5354ZM166.97 183.872C166.97 187.963 163.904 191.27 160.128 191.27H92.6108C88.8264 191.27 85.7604 187.963 85.7604 183.872V39.201C85.7604 30.879 88.8264 30.441 92.6108 30.441H106.136C106.925 30.441 107.568 31.317 107.568 32.4427V32.9201C107.568 35.513 108.988 35.5218 110.726 35.5218H142.004C143.756 35.5218 145.175 35.5218 145.175 32.9201V32.4646C145.175 31.3564 145.81 30.4629 146.607 30.4629H160.128C163.908 30.4629 166.97 31.571 166.97 39.2229V183.872Z" fill="#263238"/>
  <path d="M166.974 39.201V183.872C166.974 187.963 163.908 191.27 160.133 191.27H92.615C88.8306 191.27 85.7646 187.963 85.7646 183.872V39.201C85.7646 30.879 88.8306 30.441 92.615 30.441H106.14C106.929 30.441 107.573 31.317 107.573 32.4427V32.9201C107.573 35.5131 108.992 35.5218 110.731 35.5218H142.008C143.76 35.5218 145.179 35.5218 145.179 32.9201V32.4646C145.179 31.3565 145.814 30.4629 146.612 30.4629H160.133C163.913 30.4629 166.974 31.5711 166.974 39.201Z" fill="white"/>
  <path d="M166.974 39.2054V52.3454H85.7646V39.2054C85.7646 30.8834 88.8306 30.4454 92.615 30.4454H106.14C106.929 30.4454 107.573 31.3214 107.573 32.4471V32.9245C107.573 35.5175 108.992 35.5262 110.731 35.5262H142.008C143.76 35.5262 145.179 35.5262 145.179 32.9245V32.469C145.179 31.3609 145.814 30.4673 146.612 30.4673H160.133C163.913 30.4673 166.974 31.5755 166.974 39.2054Z" fill="#A3EBFC"/>
  <path d="M130.634 32.1798H122.101C121.961 32.1787 121.828 32.1223 121.729 32.0231C121.631 31.9238 121.576 31.7897 121.576 31.6499C121.576 31.5808 121.589 31.5125 121.616 31.4487C121.642 31.385 121.681 31.327 121.73 31.2782C121.778 31.2294 121.836 31.1907 121.9 31.1643C121.964 31.1379 122.032 31.1243 122.101 31.1243H130.634C130.703 31.1243 130.771 31.1379 130.835 31.1643C130.898 31.1907 130.956 31.2294 131.005 31.2782C131.054 31.327 131.093 31.385 131.119 31.4487C131.146 31.5125 131.159 31.5808 131.159 31.6499C131.16 31.7193 131.147 31.7881 131.12 31.8524C131.094 31.9166 131.056 31.9751 131.007 32.0244C130.958 32.0736 130.9 32.1127 130.836 32.1394C130.772 32.1661 130.703 32.1799 130.634 32.1798V32.1798Z" fill="white"/>
  <path d="M98.1075 42.8364H91.0601V47.304H98.1075V42.8364Z" fill="white"/>
  <path d="M98.1123 42.8364C97.8276 43.108 97.5385 43.3708 97.2363 43.638L96.3603 44.422L95.4843 45.2279L95.458 45.2542L94.6083 45.9594L94.5689 45.99L94.5294 45.9594L93.7323 45.2498H93.706C93.3994 44.9826 93.0928 44.7154 92.7906 44.4439L91.9146 43.6599C91.6299 43.3927 91.3408 43.1299 91.0386 42.8583C91.3408 43.0948 91.6386 43.3357 91.9146 43.5766C92.1905 43.8175 92.5103 44.0628 92.7906 44.3125C93.0709 44.5621 93.452 44.8644 93.7805 45.1447L94.5163 45.7754L95.2565 45.1447L96.242 44.3125L97.118 43.581L98.1123 42.8364Z" fill="#A3EBFC"/>
  <path d="M93.8502 45.2235L93.7363 45.3155C93.5611 45.4644 93.3772 45.609 93.1932 45.7535C93.0092 45.898 92.7552 46.0864 92.5099 46.2484C92.2646 46.4105 92.0456 46.5682 91.8091 46.7215C91.5726 46.8748 91.3273 47.0237 91.082 47.1595C91.2923 46.9711 91.52 46.7959 91.739 46.6251C91.958 46.4543 92.177 46.2922 92.4267 46.1302C92.6764 45.9681 92.891 45.8104 93.1275 45.6571C93.364 45.5038 93.5129 45.4162 93.71 45.3024C93.7538 45.2749 93.7992 45.2501 93.8458 45.2279L93.8502 45.2235Z" fill="#A3EBFC"/>
  <path d="M98.1119 47.1639C97.8623 47.0281 97.6214 46.8792 97.3848 46.7259C97.1483 46.5726 96.9118 46.4149 96.6797 46.2528C96.4475 46.0908 96.2198 45.9287 95.9964 45.7579C95.773 45.5871 95.6328 45.4776 95.4576 45.3199L95.3438 45.2279L95.4795 45.3067C95.6781 45.4206 95.8708 45.5389 96.0577 45.6615C96.2986 45.8148 96.5307 45.9725 96.7629 46.1346C96.995 46.2966 97.2228 46.4587 97.4462 46.6295C97.6695 46.8003 97.8754 46.9755 98.1119 47.1639Z" fill="#A3EBFC"/>
  <path d="M99.6189 42.8364C99.6189 43.1355 99.5301 43.4278 99.3639 43.6764C99.1977 43.925 98.9614 44.1187 98.685 44.2329C98.4087 44.3472 98.1046 44.3768 97.8114 44.3182C97.5181 44.2595 97.2489 44.1151 97.0377 43.9034C96.8266 43.6916 96.683 43.4219 96.6252 43.1285C96.5674 42.8351 96.5979 42.5312 96.713 42.2551C96.828 41.9791 97.0224 41.7434 97.2714 41.5779C97.5205 41.4123 97.8131 41.3245 98.1122 41.3253C98.5122 41.3265 98.8954 41.4862 99.1778 41.7695C99.4603 42.0527 99.6189 42.4364 99.6189 42.8364Z" fill="#455A64"/>
  <path d="M98.6071 43.1386C98.606 43.1704 98.5926 43.2004 98.5697 43.2225C98.5468 43.2446 98.5163 43.2569 98.4845 43.2569V43.2569V43.4233C98.4791 43.4513 98.4642 43.4766 98.4422 43.4947C98.4202 43.5129 98.3926 43.5229 98.364 43.5229C98.3355 43.5229 98.3079 43.5129 98.2859 43.4947C98.2639 43.4766 98.249 43.4513 98.2436 43.4233V43.2569H97.5603C97.5467 43.258 97.5331 43.2562 97.5203 43.2517C97.5074 43.2472 97.4957 43.24 97.4859 43.2306C97.4744 43.2199 97.4653 43.207 97.4591 43.1927C97.4529 43.1784 97.4497 43.163 97.4497 43.1474C97.4497 43.1317 97.4529 43.1163 97.4591 43.102C97.4653 43.0877 97.4744 43.0748 97.4859 43.0641L98.248 42.048H98.283H98.3531V42.924C98.3815 42.8903 98.4222 42.8693 98.4662 42.8656C98.5101 42.8619 98.5537 42.8758 98.5874 42.9043C98.6211 42.9327 98.6421 42.9734 98.6458 43.0173C98.6495 43.0613 98.6356 43.1049 98.6071 43.1386ZM98.2217 42.4816L97.7837 43.0203H98.2217V42.4816Z" fill="white"/>
  <path d="M103.806 33.5858L103.675 33.7172L103.6 33.7917C103.266 33.4581 102.813 33.2708 102.341 33.2708C101.869 33.2708 101.416 33.4581 101.082 33.7917L101.012 33.7172C100.968 33.6734 100.924 33.634 100.885 33.5902L101.051 33.4413C101.168 33.3454 101.296 33.2645 101.432 33.2004C101.593 33.1194 101.764 33.0619 101.94 33.0295C102.024 33.0295 102.107 33.0295 102.19 32.9945H102.413H102.584C102.743 33.0122 102.899 33.0505 103.048 33.1084C103.157 33.1476 103.263 33.1959 103.364 33.2529C103.47 33.3149 103.571 33.3852 103.666 33.4632L103.802 33.5902L103.806 33.5858Z" fill="white"/>
  <path d="M101.493 34.2034L101.288 33.9976C101.509 33.7612 101.804 33.6068 102.124 33.5596C102.355 33.5272 102.59 33.5501 102.81 33.6262C103.03 33.7023 103.229 33.8296 103.39 33.9976L103.184 34.2034C102.959 33.9807 102.655 33.8563 102.339 33.8574C102.182 33.8561 102.026 33.8861 101.881 33.9455C101.736 34.0049 101.604 34.0926 101.493 34.2034V34.2034Z" fill="white"/>
  <path d="M102.979 34.4092C102.909 34.4749 102.838 34.545 102.773 34.6151C102.716 34.557 102.648 34.5111 102.572 34.4803C102.497 34.4494 102.416 34.4342 102.335 34.4355C102.253 34.4336 102.172 34.4486 102.097 34.4795C102.022 34.5104 101.953 34.5566 101.897 34.6151L101.691 34.4092C101.775 34.3237 101.875 34.2557 101.986 34.2093C102.096 34.1629 102.215 34.139 102.335 34.139C102.455 34.139 102.573 34.1629 102.684 34.2093C102.794 34.2557 102.895 34.3237 102.979 34.4092V34.4092Z" fill="white"/>
  <path d="M102.523 34.7991C102.524 34.8367 102.514 34.8737 102.493 34.9054C102.473 34.937 102.443 34.9618 102.409 34.9766C102.374 34.9914 102.336 34.9955 102.299 34.9884C102.262 34.9813 102.228 34.9632 102.202 34.9366C102.175 34.91 102.157 34.8761 102.15 34.8391C102.143 34.8022 102.147 34.764 102.162 34.7294C102.176 34.6948 102.201 34.6654 102.233 34.6451C102.265 34.6247 102.302 34.6143 102.339 34.6152C102.388 34.6152 102.435 34.6345 102.469 34.669C102.504 34.7035 102.523 34.7503 102.523 34.7991V34.7991Z" fill="white"/>
  <path d="M91.0601 33.98C91.0601 33.8735 91.0917 33.7693 91.1509 33.6807C91.2101 33.5921 91.2942 33.5231 91.3926 33.4823C91.4911 33.4415 91.5994 33.4308 91.7039 33.4516C91.8084 33.4724 91.9044 33.5237 91.9797 33.5991C92.0551 33.6744 92.1064 33.7704 92.1272 33.8749C92.148 33.9794 92.1373 34.0877 92.0965 34.1862C92.0558 34.2846 91.9867 34.3688 91.8981 34.428C91.8095 34.4872 91.7054 34.5188 91.5988 34.5188C91.5281 34.5188 91.458 34.5048 91.3926 34.4778C91.3273 34.4507 91.2679 34.411 91.2179 34.361C91.1678 34.3109 91.1281 34.2516 91.1011 34.1862C91.074 34.1208 91.0601 34.0508 91.0601 33.98V33.98Z" fill="white"/>
  <path d="M92.7554 33.98C92.7554 33.8735 92.787 33.7693 92.8462 33.6807C92.9054 33.5921 92.9895 33.5231 93.0879 33.4823C93.1864 33.4415 93.2947 33.4308 93.3992 33.4516C93.5037 33.4724 93.5997 33.5237 93.6751 33.5991C93.7504 33.6744 93.8017 33.7704 93.8225 33.8749C93.8433 33.9794 93.8326 34.0877 93.7918 34.1862C93.7511 34.2846 93.682 34.3688 93.5934 34.428C93.5048 34.4872 93.4007 34.5188 93.2941 34.5188C93.1512 34.5188 93.0142 34.462 92.9132 34.361C92.8121 34.2599 92.7554 34.1229 92.7554 33.98V33.98Z" fill="white"/>
  <path d="M94.4502 33.98C94.4502 33.8735 94.4818 33.7693 94.541 33.6807C94.6002 33.5921 94.6843 33.5231 94.7828 33.4823C94.8812 33.4415 94.9895 33.4308 95.094 33.4516C95.1985 33.4724 95.2945 33.5237 95.3699 33.5991C95.4452 33.6744 95.4965 33.7704 95.5173 33.8749C95.5381 33.9794 95.5274 34.0877 95.4867 34.1862C95.4459 34.2846 95.3768 34.3688 95.2882 34.428C95.1996 34.4872 95.0955 34.5188 94.9889 34.5188C94.8461 34.5188 94.709 34.462 94.608 34.361C94.507 34.2599 94.4502 34.1229 94.4502 33.98V33.98Z" fill="white"/>
  <path d="M96.1455 33.98C96.1455 33.8735 96.1771 33.7693 96.2363 33.6807C96.2955 33.5921 96.3796 33.5231 96.4781 33.4823C96.5765 33.4415 96.6848 33.4308 96.7894 33.4516C96.8939 33.4724 96.9899 33.5237 97.0652 33.5991C97.1405 33.6744 97.1919 33.7704 97.2126 33.8749C97.2334 33.9794 97.2228 34.0877 97.182 34.1862C97.1412 34.2846 97.0722 34.3688 96.9836 34.428C96.895 34.4872 96.7908 34.5188 96.6843 34.5188C96.6135 34.5188 96.5434 34.5048 96.4781 34.4778C96.4127 34.4507 96.3533 34.411 96.3033 34.361C96.2533 34.3109 96.2136 34.2516 96.1865 34.1862C96.1594 34.1208 96.1455 34.0508 96.1455 33.98V33.98Z" fill="white"/>
  <path d="M97.8403 33.98C97.8403 33.8735 97.8719 33.7693 97.9311 33.6807C97.9903 33.5921 98.0745 33.5231 98.1729 33.4823C98.2713 33.4415 98.3797 33.4308 98.4842 33.4516C98.5887 33.4724 98.6847 33.5237 98.76 33.5991C98.8354 33.6744 98.8867 33.7704 98.9075 33.8749C98.9282 33.9794 98.9176 34.0877 98.8768 34.1862C98.836 34.2846 98.767 34.3688 98.6784 34.428C98.5898 34.4872 98.4856 34.5188 98.3791 34.5188C98.3083 34.5188 98.2383 34.5048 98.1729 34.4778C98.1075 34.4507 98.0482 34.411 97.9981 34.361C97.9481 34.3109 97.9084 34.2516 97.8813 34.1862C97.8543 34.1208 97.8403 34.0508 97.8403 33.98V33.98Z" fill="white"/>
  <path d="M160.878 35.1583H156.498V33.126H160.878V35.1583ZM156.721 34.9349H160.663V33.3494H156.721V34.9349Z" fill="white"/>
  <path d="M159.686 33.4719H156.861V34.8122H159.686V33.4719Z" fill="white"/>
  <path d="M161.272 33.599H160.882V34.6852H161.272V33.599Z" fill="white"/>
  <path d="M119.381 43.7036C119.381 43.669 119.387 43.6345 119.4 43.6024C119.413 43.5702 119.433 43.541 119.457 43.5165C119.482 43.492 119.511 43.4726 119.543 43.4596C119.575 43.4466 119.61 43.4402 119.644 43.4408C119.679 43.4403 119.714 43.4466 119.746 43.4596C119.778 43.4725 119.808 43.4918 119.833 43.5162C119.858 43.5407 119.877 43.5699 119.891 43.602C119.904 43.6342 119.911 43.6687 119.911 43.7036V46.5112C119.911 46.5461 119.904 46.5806 119.891 46.6128C119.877 46.645 119.858 46.6741 119.833 46.6986C119.808 46.7231 119.778 46.7423 119.746 46.7553C119.714 46.7682 119.679 46.7746 119.644 46.774C119.61 46.7746 119.575 46.7682 119.543 46.7552C119.511 46.7422 119.482 46.7229 119.457 46.6984C119.433 46.6738 119.413 46.6446 119.4 46.6125C119.387 46.5803 119.381 46.5459 119.381 46.5112V43.7036Z" fill="white"/>
  <path d="M121.326 46.5113C121.326 46.5802 121.299 46.6464 121.251 46.6956C121.202 46.7447 121.137 46.7729 121.068 46.7741C121.033 46.7741 120.999 46.7673 120.968 46.754C120.936 46.7407 120.907 46.7213 120.883 46.6968C120.859 46.6724 120.84 46.6434 120.828 46.6115C120.815 46.5797 120.809 46.5456 120.809 46.5113V43.7431C120.806 43.7011 120.814 43.6589 120.831 43.6206C120.849 43.5824 120.876 43.5491 120.91 43.5241C120.966 43.4852 121.035 43.4694 121.103 43.48C121.171 43.4906 121.232 43.5268 121.274 43.5811L122.811 45.7097V43.7431C122.812 43.6753 122.84 43.6107 122.888 43.5632C122.936 43.5157 123.002 43.4891 123.069 43.4891C123.138 43.489 123.203 43.5155 123.252 43.5629C123.301 43.6103 123.33 43.6749 123.332 43.7431V46.5113C123.332 46.581 123.304 46.6478 123.255 46.6971C123.206 46.7464 123.139 46.7741 123.069 46.7741C123.032 46.7729 122.994 46.7637 122.96 46.7471C122.926 46.7304 122.896 46.7068 122.872 46.6777V46.6514L121.326 44.5359V46.5113Z" fill="white"/>
  <path d="M124.475 46.5112V43.7036C124.475 43.6339 124.503 43.5671 124.552 43.5178C124.601 43.4685 124.668 43.4408 124.738 43.4408H125.412C125.652 43.4408 125.882 43.5357 126.052 43.7048C126.222 43.8739 126.318 44.1034 126.319 44.3431C126.32 44.5396 126.256 44.7309 126.135 44.8862C126.323 45.003 126.469 45.1779 126.549 45.3845C126.629 45.5911 126.639 45.8182 126.579 46.0314C126.519 46.2446 126.391 46.4324 126.214 46.5664C126.038 46.7003 125.822 46.7732 125.601 46.774H124.755C124.719 46.7764 124.683 46.7714 124.649 46.7592C124.616 46.7471 124.584 46.7281 124.558 46.7035C124.532 46.6788 124.511 46.649 124.497 46.616C124.482 46.5829 124.475 46.5472 124.475 46.5112V46.5112ZM125.005 44.7329H125.412C125.514 44.7306 125.61 44.6884 125.681 44.6154C125.751 44.5424 125.79 44.4446 125.789 44.3431C125.789 44.2938 125.779 44.245 125.76 44.1996C125.741 44.1541 125.714 44.1129 125.679 44.0783C125.643 44.0436 125.602 44.0163 125.556 43.9978C125.511 43.9794 125.462 43.9702 125.412 43.9708H125.005V44.7329ZM125.005 46.244H125.601C125.723 46.2324 125.837 46.1755 125.92 46.0844C126.003 45.9932 126.049 45.8745 126.049 45.7512C126.049 45.628 126.003 45.5092 125.92 45.4181C125.837 45.327 125.723 45.2701 125.601 45.2585H125.005V46.244Z" fill="white"/>
  <path d="M129.933 43.8526C130.242 44.1782 130.415 44.6101 130.415 45.0592C130.415 45.5084 130.242 45.9403 129.933 46.2659C129.788 46.424 129.612 46.5507 129.416 46.638C129.22 46.7254 129.008 46.7717 128.794 46.774C128.576 46.7725 128.36 46.7266 128.159 46.6393C127.959 46.552 127.779 46.425 127.629 46.2659C127.324 45.9379 127.155 45.5068 127.155 45.0592C127.155 44.6117 127.324 44.1806 127.629 43.8526C127.78 43.6959 127.961 43.5716 128.161 43.4872C128.361 43.4029 128.577 43.3603 128.794 43.362C129.007 43.3613 129.219 43.4044 129.414 43.4888C129.61 43.5732 129.787 43.697 129.933 43.8526ZM129.871 45.0571C129.871 44.7489 129.756 44.4519 129.547 44.2248C129.452 44.1191 129.336 44.0344 129.206 43.9763C129.077 43.9182 128.936 43.888 128.794 43.8876C128.649 43.8869 128.506 43.9165 128.373 43.9746C128.24 44.0327 128.121 44.1179 128.023 44.2248C127.815 44.4519 127.699 44.7489 127.699 45.0571C127.697 45.3656 127.813 45.6631 128.023 45.8892C128.121 45.9967 128.24 46.0827 128.372 46.1415C128.505 46.2003 128.649 46.2308 128.794 46.2309C128.936 46.2297 129.077 46.1987 129.207 46.1398C129.337 46.081 129.453 45.9956 129.547 45.8892C129.757 45.6631 129.873 45.3656 129.871 45.0571V45.0571Z" fill="white"/>
  <path d="M133.502 43.892L132.596 45.114L133.502 46.3492C133.542 46.4052 133.559 46.4746 133.548 46.5426C133.537 46.6105 133.5 46.6716 133.445 46.7127C133.401 46.7462 133.347 46.7646 133.292 46.7653C133.25 46.7641 133.209 46.7537 133.172 46.7348C133.135 46.7158 133.103 46.6888 133.077 46.6558L132.276 45.552L131.47 46.6514C131.445 46.6839 131.413 46.7105 131.377 46.7295C131.341 46.7484 131.301 46.7591 131.26 46.7609C131.204 46.7616 131.15 46.743 131.106 46.7083C131.05 46.6679 131.013 46.6071 131.001 46.5391C130.99 46.4711 131.005 46.4013 131.045 46.3448L131.952 45.1096L131.045 43.8789C131.006 43.823 130.99 43.7539 131.002 43.6866C131.013 43.6193 131.051 43.5593 131.106 43.5197C131.133 43.4975 131.164 43.4812 131.198 43.4719C131.231 43.4627 131.267 43.4607 131.301 43.4661C131.335 43.4715 131.368 43.4841 131.397 43.5032C131.426 43.5222 131.451 43.5473 131.47 43.5766L132.276 44.676L133.073 43.581C133.092 43.5515 133.117 43.5264 133.147 43.5073C133.176 43.4882 133.209 43.4756 133.244 43.4702C133.279 43.4649 133.314 43.4669 133.348 43.4761C133.382 43.4854 133.414 43.5018 133.441 43.5241C133.47 43.5437 133.494 43.569 133.513 43.5984C133.532 43.6277 133.544 43.6606 133.55 43.695C133.556 43.7293 133.554 43.7645 133.546 43.7984C133.538 43.8322 133.523 43.8641 133.502 43.892V43.892Z" fill="white"/>
  <path d="M155.788 46.7478L155.236 47.1858L154.216 45.8367L153.843 45.3418C153.92 45.3119 153.992 45.2721 154.058 45.2235C154.181 45.127 154.278 45.0003 154.338 44.8556L154.737 45.3768L155.788 46.7478Z" fill="white"/>
  <path d="M154.701 43.5679C154.526 43.3399 154.29 43.1667 154.02 43.0688C153.749 42.9708 153.457 42.9523 153.176 43.0152C152.896 43.0782 152.639 43.22 152.437 43.4241C152.234 43.6281 152.094 43.8858 152.034 44.1667C151.973 44.4477 151.994 44.7401 152.094 45.0096C152.194 45.2791 152.369 45.5143 152.598 45.6876C152.827 45.8608 153.101 45.9649 153.388 45.9874C153.675 46.01 153.962 45.9501 154.215 45.8148C154.289 45.7764 154.36 45.7309 154.425 45.6791C154.546 45.589 154.651 45.4794 154.736 45.3549C154.922 45.0923 155.019 44.7772 155.013 44.4557C155.006 44.1341 154.897 43.823 154.701 43.5679V43.5679ZM154.058 45.2016C153.991 45.2502 153.919 45.29 153.843 45.3199C153.65 45.3968 153.437 45.4046 153.239 45.3421C153.041 45.2795 152.871 45.1504 152.758 44.9767C152.645 44.8029 152.595 44.5953 152.617 44.3891C152.64 44.1829 152.733 43.9908 152.881 43.8454C153.029 43.7001 153.223 43.6104 153.429 43.5917C153.636 43.573 153.842 43.6265 154.014 43.7429C154.186 43.8593 154.312 44.0316 154.371 44.2305C154.43 44.4293 154.418 44.6425 154.338 44.8337C154.278 44.9784 154.181 45.1052 154.058 45.2016V45.2016Z" fill="white"/>
  <path d="M148.298 43.0685H144.295V47.0718H148.298V43.0685Z" fill="white"/>
  <path d="M146.516 43.8131H146.078V46.3316H146.516V43.8131Z" fill="#A3EBFC"/>
  <path d="M145.035 44.8512V45.2892H147.554V44.8512H145.035Z" fill="#A3EBFC"/>
  <path d="M160.878 43.327C160.878 43.3954 160.857 43.4623 160.819 43.5192C160.781 43.5761 160.727 43.6205 160.664 43.6467C160.601 43.6728 160.531 43.6797 160.464 43.6663C160.397 43.653 160.335 43.62 160.287 43.5717C160.239 43.5233 160.206 43.4616 160.192 43.3945C160.179 43.3274 160.186 43.2578 160.212 43.1946C160.238 43.1313 160.282 43.0773 160.339 43.0393C160.396 43.0013 160.463 42.981 160.532 42.981C160.577 42.981 160.622 42.9899 160.664 43.0073C160.706 43.0247 160.744 43.0502 160.776 43.0823C160.808 43.1144 160.834 43.1526 160.851 43.1946C160.869 43.2365 160.878 43.2815 160.878 43.327V43.327Z" fill="white"/>
  <path d="M160.878 45.114C160.878 45.2057 160.841 45.2937 160.776 45.3586C160.711 45.4235 160.623 45.46 160.532 45.46C160.44 45.46 160.352 45.4235 160.287 45.3586C160.222 45.2937 160.186 45.2057 160.186 45.114C160.186 45.0685 160.194 45.0235 160.212 44.9815C160.229 44.9396 160.255 44.9014 160.287 44.8693C160.319 44.8372 160.357 44.8117 160.399 44.7943C160.441 44.7769 160.486 44.7679 160.532 44.7679C160.577 44.7679 160.622 44.7769 160.664 44.7943C160.706 44.8117 160.744 44.8372 160.776 44.8693C160.808 44.9014 160.834 44.9396 160.851 44.9815C160.869 45.0235 160.878 45.0685 160.878 45.114V45.114Z" fill="white"/>
  <path d="M160.878 46.9185C160.878 46.964 160.869 47.009 160.851 47.0509C160.834 47.0929 160.808 47.1311 160.776 47.1632C160.744 47.1953 160.706 47.2208 160.664 47.2382C160.622 47.2556 160.577 47.2646 160.532 47.2646C160.486 47.2646 160.441 47.2556 160.399 47.2382C160.357 47.2208 160.319 47.1953 160.287 47.1632C160.255 47.1311 160.229 47.0929 160.212 47.0509C160.194 47.009 160.186 46.964 160.186 46.9185C160.186 46.8268 160.222 46.7387 160.287 46.6739C160.352 46.609 160.44 46.5725 160.532 46.5725C160.623 46.5725 160.711 46.609 160.776 46.6739C160.841 46.7387 160.878 46.8268 160.878 46.9185Z" fill="white"/>
  <path d="M166.97 52.3279H85.7646V64.8678H166.97V52.3279Z" fill="#EBEBEB"/>
  <path d="M98.9882 61.0221C98.7338 61.1794 98.4557 61.2947 98.1648 61.3638C97.4704 61.5304 96.7388 61.4293 96.1158 61.0804C95.4927 60.7316 95.024 60.1608 94.8032 59.4817C94.5824 58.8027 94.6256 58.0653 94.9243 57.4168C95.2229 56.7682 95.7551 56.256 96.4146 55.9824C97.0742 55.7087 97.8126 55.6937 98.4827 55.9404C99.1528 56.187 99.7053 56.6772 100.03 57.3131C100.355 57.9491 100.428 58.684 100.235 59.3715C100.042 60.0589 99.5966 60.6483 98.9882 61.0221V61.0221Z" fill="#A3EBFC"/>
  <path d="M98.3355 58.254C98.3355 58.4272 98.2841 58.5966 98.1879 58.7407C98.0916 58.8847 97.9548 58.997 97.7947 59.0633C97.6347 59.1296 97.4585 59.147 97.2886 59.1132C97.1187 59.0794 96.9626 58.9959 96.8401 58.8734C96.7176 58.7509 96.6341 58.5948 96.6003 58.4249C96.5665 58.255 96.5839 58.0788 96.6502 57.9188C96.7165 57.7587 96.8288 57.6219 96.9728 57.5256C97.1169 57.4294 97.2862 57.378 97.4595 57.378C97.6918 57.378 97.9146 57.4703 98.0789 57.6346C98.2432 57.7988 98.3355 58.0217 98.3355 58.254Z" fill="white"/>
  <path d="M98.9881 60.663V61.0222C98.7336 61.1794 98.4556 61.2947 98.1646 61.3638C97.7953 61.4562 97.4112 61.4735 97.035 61.4149C96.6588 61.3562 96.2983 61.2226 95.9746 61.0222V60.663C95.9746 60.2657 96.1324 59.8847 96.4134 59.6038C96.6943 59.3229 97.0753 59.165 97.4726 59.165C97.8699 59.165 98.2509 59.3229 98.5318 59.6038C98.8127 59.8847 98.9705 60.2657 98.9705 60.663H98.9881Z" fill="white"/>
  <path d="M115.352 60.4834H111.585L113.122 58.6L111.585 56.7166H115.352L116.889 58.6L115.352 60.4834Z" fill="white"/>
  <path d="M105.672 56.7166L106.285 57.9562L107.652 58.1533L106.662 59.1212L106.899 60.4834L105.672 59.8395L104.45 60.4834L104.682 59.1212L103.692 58.1533L105.059 57.9562L105.672 56.7166Z" fill="#A3EBFC"/>
  <path d="M141.816 57.8335H119.592V59.3665H141.816V57.8335Z" fill="#263238"/>
  <path d="M159.686 57.8335H150.974V59.3665H159.686V57.8335Z" fill="#455A64"/>
  <path d="M98.9882 73.584C98.7338 73.7412 98.4557 73.8566 98.1648 73.9257C97.4704 74.0923 96.7388 73.9912 96.1158 73.6423C95.4927 73.2935 95.024 72.7226 94.8032 72.0436C94.5824 71.3646 94.6256 70.6272 94.9243 69.9787C95.2229 69.3301 95.7551 68.8179 96.4146 68.5443C97.0742 68.2706 97.8126 68.2556 98.4827 68.5023C99.1528 68.7489 99.7053 69.2391 100.03 69.875C100.355 70.511 100.428 71.2459 100.235 71.9334C100.042 72.6208 99.5966 73.2102 98.9882 73.584V73.584Z" fill="#455A64"/>
  <path d="M98.3355 70.8158C98.3355 70.9891 98.2841 71.1584 98.1879 71.3025C98.0916 71.4466 97.9548 71.5588 97.7947 71.6251C97.6347 71.6914 97.4585 71.7088 97.2886 71.675C97.1187 71.6412 96.9626 71.5578 96.8401 71.4352C96.7176 71.3127 96.6341 71.1566 96.6003 70.9867C96.5665 70.8168 96.5839 70.6407 96.6502 70.4806C96.7165 70.3205 96.8288 70.1837 96.9728 70.0875C97.1169 69.9912 97.2862 69.9398 97.4595 69.9398C97.6918 69.9398 97.9146 70.0321 98.0789 70.1964C98.2432 70.3607 98.3355 70.5835 98.3355 70.8158Z" fill="white"/>
  <path d="M98.9881 73.2029V73.584C98.7336 73.7412 98.4556 73.8565 98.1646 73.9256C97.7954 74.0193 97.4111 74.0373 97.0347 73.9786C96.6584 73.9198 96.2978 73.7856 95.9746 73.584V73.2248C95.9746 72.8275 96.1324 72.4465 96.4134 72.1656C96.6943 71.8847 97.0753 71.7269 97.4726 71.7269C97.8699 71.7269 98.2509 71.8847 98.5318 72.1656C98.8127 72.4465 98.9705 72.8275 98.9705 73.2248L98.9881 73.2029Z" fill="white"/>
  <path d="M115.352 73.0233H111.585L113.122 71.1399L111.585 69.2565H115.352L116.889 71.1399L115.352 73.0233Z" fill="white"/>
  <path d="M115.404 73.146H111.353L112.982 71.1531L111.353 69.1602H115.404L117.029 71.1531L115.404 73.146ZM111.817 72.927H115.321L116.766 71.1531L115.321 69.4011H111.817L113.262 71.1531L111.817 72.927Z" fill="#EBEBEB"/>
  <path d="M105.672 69.2565L106.285 70.4961L107.652 70.6932L106.662 71.6612L106.899 73.0233L105.672 72.3795L104.45 73.0233L104.682 71.6612L103.692 70.6932L105.059 70.4961L105.672 69.2565Z" fill="#A3EBFC"/>
  <path d="M141.816 70.3735H119.592V71.9065H141.816V70.3735Z" fill="#263238"/>
  <path d="M159.686 70.3735H150.974V71.9065H159.686V70.3735Z" fill="#455A64"/>
  <path d="M166.97 77.4077H85.7646V89.9477H166.97V77.4077Z" fill="#EBEBEB"/>
  <path d="M98.9881 86.102C98.733 86.2588 98.4552 86.3755 98.1647 86.448C97.4668 86.6194 96.7299 86.5214 96.1012 86.1735C95.4724 85.8256 94.9978 85.2534 94.7723 84.5711C94.5467 83.8888 94.5867 83.1465 94.8842 82.4924C95.1817 81.8382 95.7149 81.3203 96.3774 81.0419C97.0399 80.7635 97.783 80.7451 98.4585 80.9904C99.1339 81.2357 99.6921 81.7266 100.022 82.3653C100.351 83.0039 100.428 83.7433 100.236 84.4359C100.045 85.1285 99.5989 85.7235 98.9881 86.102V86.102Z" fill="#A3EBFC"/>
  <path d="M98.3355 83.3558C98.3355 83.5291 98.2841 83.6984 98.1879 83.8425C98.0916 83.9865 97.9548 84.0988 97.7947 84.1651C97.6347 84.2314 97.4585 84.2488 97.2886 84.215C97.1187 84.1812 96.9626 84.0977 96.8401 83.9752C96.7176 83.8527 96.6341 83.6966 96.6003 83.5267C96.5665 83.3568 96.5839 83.1806 96.6502 83.0206C96.7165 82.8605 96.8288 82.7237 96.9728 82.6274C97.1169 82.5312 97.2862 82.4798 97.4595 82.4798C97.6918 82.4798 97.9146 82.5721 98.0789 82.7364C98.2432 82.9007 98.3355 83.1235 98.3355 83.3558Z" fill="white"/>
  <path d="M98.9881 85.7429V86.1021C98.7329 86.2589 98.4552 86.3756 98.1646 86.4481C97.7951 86.5408 97.4106 86.558 97.0343 86.4985C96.658 86.439 96.2975 86.3042 95.9746 86.1021V85.7429C95.9746 85.3456 96.1324 84.9646 96.4134 84.6837C96.6943 84.4028 97.0753 84.2449 97.4726 84.2449C97.8699 84.2449 98.2509 84.4028 98.5318 84.6837C98.8127 84.9646 98.9705 85.3456 98.9705 85.7429H98.9881Z" fill="white"/>
  <path d="M115.352 85.5633H111.585L113.122 83.6799L111.585 81.7965H115.352L116.889 83.6799L115.352 85.5633Z" fill="white"/>
  <path d="M105.672 81.7965L106.285 83.036L107.652 83.2331L106.662 84.2011L106.899 85.5633L105.672 84.9195L104.45 85.5633L104.682 84.2011L103.692 83.2331L105.059 83.036L105.672 81.7965Z" fill="white"/>
  <path d="M141.816 82.9134H119.592V84.4464H141.816V82.9134Z" fill="#DBDBDB"/>
  <path d="M159.686 82.9134H150.974V84.4464H159.686V82.9134Z" fill="#C7C7C7"/>
  <path d="M98.9881 98.642C98.733 98.7988 98.4552 98.9155 98.1647 98.988C97.4668 99.1594 96.7299 99.0613 96.1012 98.7134C95.4724 98.3655 94.9978 97.7934 94.7723 97.1111C94.5467 96.4288 94.5867 95.6865 94.8842 95.0324C95.1817 94.3782 95.7149 93.8603 96.3774 93.5819C97.0399 93.3035 97.783 93.2851 98.4585 93.5304C99.1339 93.7757 99.6921 94.2666 100.022 94.9052C100.351 95.5439 100.428 96.2832 100.236 96.9759C100.045 97.6685 99.5989 98.2634 98.9881 98.642V98.642Z" fill="#A6A6A6"/>
  <path d="M98.3355 95.8957C98.3355 96.069 98.2841 96.2383 98.1879 96.3824C98.0916 96.5265 97.9548 96.6387 97.7947 96.705C97.6347 96.7713 97.4585 96.7887 97.2886 96.7549C97.1187 96.7211 96.9626 96.6377 96.8401 96.5151C96.7176 96.3926 96.6341 96.2365 96.6003 96.0666C96.5665 95.8967 96.5839 95.7206 96.6502 95.5605C96.7165 95.4004 96.8288 95.2636 96.9728 95.1673C97.1169 95.0711 97.2862 95.0197 97.4595 95.0197C97.6918 95.0197 97.9146 95.112 98.0789 95.2763C98.2432 95.4406 98.3355 95.6634 98.3355 95.8957Z" fill="white"/>
  <path d="M98.9881 98.2872V98.642C98.7329 98.7988 98.4552 98.9155 98.1646 98.988C97.7951 99.0807 97.4106 99.0979 97.0343 99.0384C96.658 98.979 96.2975 98.8441 95.9746 98.642V98.2872C95.9746 97.8899 96.1324 97.5089 96.4134 97.228C96.6943 96.9471 97.0753 96.7892 97.4726 96.7892C97.8699 96.7892 98.2509 96.9471 98.5318 97.228C98.8127 97.5089 98.9705 97.8899 98.9705 98.2872H98.9881Z" fill="white"/>
  <path d="M115.352 98.1032H111.585L113.122 96.2198L111.585 94.3364H115.352L116.889 96.2198L115.352 98.1032Z" fill="white"/>
  <path d="M115.404 98.2127H111.353L112.982 96.2198L111.353 94.2269H115.404L117.029 96.2198L115.404 98.2127ZM111.817 97.9937H115.321L116.766 96.2417L115.321 94.4678H111.817L113.262 96.2417L111.817 97.9937Z" fill="#EBEBEB"/>
  <path d="M105.672 94.3364L106.285 95.576L107.652 95.7774L106.662 96.741L106.899 98.1032L105.672 97.4594L104.45 98.1032L104.682 96.741L103.692 95.7774L105.059 95.576L105.672 94.3364Z" fill="#A3EBFC"/>
  <path d="M141.816 95.4534H119.592V96.9864H141.816V95.4534Z" fill="#DBDBDB"/>
  <path d="M159.686 95.4534H150.974V96.9864H159.686V95.4534Z" fill="#C7C7C7"/>
  <path d="M166.97 102.492H85.7646V115.032H166.97V102.492Z" fill="#EBEBEB"/>
  <path d="M98.9881 111.182C98.733 111.339 98.4552 111.455 98.1647 111.528C97.4668 111.699 96.7299 111.601 96.1012 111.253C95.4724 110.905 94.9978 110.333 94.7723 109.651C94.5467 108.969 94.5867 108.226 94.8842 107.572C95.1817 106.918 95.7149 106.4 96.3774 106.122C97.0399 105.843 97.783 105.825 98.4585 106.07C99.1339 106.316 99.6921 106.807 100.022 107.445C100.351 108.084 100.428 108.823 100.236 109.516C100.045 110.208 99.5989 110.803 98.9881 111.182V111.182Z" fill="#37474F"/>
  <path d="M98.3355 108.436C98.3355 108.609 98.2841 108.778 98.1879 108.922C98.0916 109.066 97.9548 109.179 97.7947 109.245C97.6347 109.311 97.4585 109.329 97.2886 109.295C97.1187 109.261 96.9626 109.178 96.8401 109.055C96.7176 108.933 96.6341 108.777 96.6003 108.607C96.5665 108.437 96.5839 108.261 96.6502 108.1C96.7165 107.94 96.8288 107.804 96.9728 107.707C97.1169 107.611 97.2862 107.56 97.4595 107.56C97.6918 107.56 97.9146 107.652 98.0789 107.816C98.2432 107.981 98.3355 108.203 98.3355 108.436Z" fill="white"/>
  <path d="M98.9881 110.814V111.169C98.7329 111.326 98.4552 111.442 98.1646 111.515C97.7951 111.608 97.4106 111.625 97.0343 111.565C96.658 111.506 96.2975 111.371 95.9746 111.169V110.814C95.9746 110.417 96.1324 110.036 96.4134 109.755C96.6943 109.474 97.0753 109.316 97.4726 109.316C97.8699 109.316 98.2509 109.474 98.5318 109.755C98.8127 110.036 98.9705 110.417 98.9705 110.814H98.9881Z" fill="white"/>
  <path d="M115.352 110.643H111.585L113.122 108.76L111.585 106.876H115.352L116.889 108.76L115.352 110.643Z" fill="white"/>
  <path d="M105.672 106.876L106.285 108.116L107.652 108.317L106.662 109.281L106.899 110.643L105.672 109.999L104.45 110.643L104.682 109.281L103.692 108.317L105.059 108.116L105.672 106.876Z" fill="#A3EBFC"/>
  <path d="M141.816 107.993H119.592V109.526H141.816V107.993Z" fill="#DBDBDB"/>
  <path d="M159.686 107.993H150.974V109.526H159.686V107.993Z" fill="#C7C7C7"/>
  <path d="M166.975 177.732V183.864C166.993 185.131 166.69 186.383 166.094 187.502C165.498 188.62 164.629 189.57 163.567 190.263H89.177C88.1149 189.571 87.2454 188.621 86.6495 187.502C86.0536 186.383 85.7508 185.131 85.7694 183.864V177.732H166.975Z" fill="#EBEBEB"/>
  <path d="M98.9881 186.426C98.733 186.583 98.4552 186.699 98.1647 186.772C97.4668 186.943 96.7299 186.845 96.1012 186.497C95.4724 186.149 94.9978 185.577 94.7723 184.895C94.5467 184.213 94.5867 183.47 94.8842 182.816C95.1817 182.162 95.7149 181.644 96.3774 181.366C97.0399 181.087 97.783 181.069 98.4585 181.314C99.1339 181.56 99.6921 182.051 100.022 182.689C100.351 183.328 100.428 184.067 100.236 184.76C100.045 185.452 99.5989 186.047 98.9881 186.426V186.426Z" fill="#A3EBFC"/>
  <path d="M98.3355 183.68C98.3355 183.853 98.2841 184.022 98.1879 184.166C98.0916 184.31 97.9548 184.423 97.7947 184.489C97.6347 184.555 97.4585 184.573 97.2886 184.539C97.1187 184.505 96.9626 184.422 96.8401 184.299C96.7176 184.177 96.6341 184.021 96.6003 183.851C96.5665 183.681 96.5839 183.505 96.6502 183.344C96.7165 183.184 96.8288 183.048 96.9728 182.951C97.1169 182.855 97.2862 182.804 97.4595 182.804C97.6918 182.804 97.9146 182.896 98.0789 183.06C98.2432 183.225 98.3355 183.447 98.3355 183.68Z" fill="white"/>
  <path d="M98.9881 186.067V186.426C98.7329 186.583 98.4552 186.699 98.1646 186.772C97.795 186.864 97.4107 186.88 97.0345 186.821C96.6584 186.761 96.2979 186.627 95.9746 186.426V186.067C95.9746 185.67 96.1324 185.289 96.4134 185.008C96.6943 184.727 97.0753 184.569 97.4726 184.569C97.8699 184.569 98.2509 184.727 98.5318 185.008C98.8127 185.289 98.9705 185.67 98.9705 186.067H98.9881Z" fill="white"/>
  <path d="M115.352 185.887H111.585L113.122 184.004L111.585 182.12H115.352L116.889 184.004L115.352 185.887Z" fill="white"/>
  <path d="M105.672 182.12L106.285 183.36L107.652 183.557L106.662 184.525L106.899 185.887L105.672 185.243L104.45 185.887L104.682 184.525L103.692 183.557L105.059 183.36L105.672 182.12Z" fill="#A3EBFC"/>
  <path d="M141.816 183.237H119.592V184.77H141.816V183.237Z" fill="#DBDBDB"/>
  <path d="M159.686 183.237H150.974V184.77H159.686V183.237Z" fill="#C7C7C7"/>
  <path d="M98.9879 123.722C98.605 123.958 98.1718 124.1 97.7236 124.136C97.2753 124.173 96.8248 124.103 96.4088 123.932C95.9928 123.761 95.6231 123.494 95.3299 123.153C95.0367 122.812 94.8283 122.407 94.7218 121.97C94.5972 121.459 94.6164 120.923 94.7772 120.423C94.938 119.922 95.2342 119.475 95.6331 119.132C96.0319 118.789 96.5178 118.563 97.0371 118.48C97.5563 118.396 98.0887 118.457 98.5752 118.657C99.0618 118.857 99.4836 119.187 99.794 119.612C100.104 120.036 100.291 120.539 100.334 121.063C100.377 121.587 100.274 122.113 100.036 122.582C99.7984 123.051 99.4357 123.446 98.9879 123.722V123.722Z" fill="#263238"/>
  <path d="M98.3355 120.976C98.3355 121.149 98.2841 121.318 98.1879 121.462C98.0916 121.606 97.9548 121.719 97.7947 121.785C97.6347 121.851 97.4585 121.869 97.2886 121.835C97.1187 121.801 96.9626 121.718 96.8401 121.595C96.7176 121.473 96.6341 121.316 96.6003 121.147C96.5665 120.977 96.5839 120.8 96.6502 120.64C96.7165 120.48 96.8288 120.343 96.9728 120.247C97.1169 120.151 97.2862 120.1 97.4595 120.1C97.6918 120.1 97.9146 120.192 98.0789 120.356C98.2432 120.52 98.3355 120.743 98.3355 120.976Z" fill="white"/>
  <path d="M98.9881 123.367V123.722C98.5384 124.001 98.0196 124.149 97.4901 124.149C96.9607 124.149 96.4419 124.001 95.9922 123.722V123.367C95.9922 122.97 96.15 122.589 96.4309 122.308C96.7119 122.027 97.0929 121.869 97.4901 121.869C97.8874 121.869 98.2684 122.027 98.5494 122.308C98.8303 122.589 98.9881 122.97 98.9881 123.367Z" fill="white"/>
  <path d="M115.352 123.183H111.585L113.122 121.3L111.585 119.416H115.352L116.889 121.3L115.352 123.183Z" fill="white"/>
  <path d="M115.404 123.293H111.353L112.982 121.3L111.353 119.307H115.404L117.029 121.3L115.404 123.293ZM111.817 123.074H115.321L116.766 121.3L115.321 119.526H111.817L113.262 121.3L111.817 123.074Z" fill="#EBEBEB"/>
  <path d="M105.672 119.416L106.285 120.656L107.652 120.857L106.662 121.821L106.899 123.183L105.672 122.539L104.45 123.183L104.682 121.821L103.692 120.857L105.059 120.656L105.672 119.416Z" fill="white"/>
  <path d="M107.043 123.385L105.672 122.666L104.301 123.385L104.564 121.86L103.456 120.778L104.989 120.559L105.672 119.171L106.355 120.559L107.888 120.778L106.78 121.86L107.043 123.385ZM105.672 122.417L106.749 122.986L106.543 121.782L107.419 120.932L106.211 120.757L105.672 119.666L105.12 120.757L103.915 120.932L104.791 121.782L104.586 122.986L105.672 122.417Z" fill="#EBEBEB"/>
  <path d="M141.816 120.533H119.592V122.066H141.816V120.533Z" fill="#DBDBDB"/>
  <path d="M159.686 120.533H150.974V122.066H159.686V120.533Z" fill="#C7C7C7"/>
  <path d="M166.97 127.572H85.7646V140.112H166.97V127.572Z" fill="#EBEBEB"/>
  <path d="M98.9879 136.266C98.7325 136.422 98.4548 136.537 98.1644 136.608C97.6174 136.741 97.0433 136.708 96.5147 136.515C95.986 136.322 95.5265 135.976 95.1943 135.522C94.8621 135.067 94.672 134.525 94.6481 133.962C94.6242 133.4 94.7675 132.843 95.06 132.362C95.3525 131.881 95.781 131.498 96.2913 131.26C96.8017 131.023 97.371 130.942 97.9273 131.028C98.4836 131.114 99.0019 131.363 99.4168 131.743C99.8316 132.123 100.124 132.618 100.258 133.165C100.4 133.75 100.354 134.365 100.126 134.922C99.8975 135.478 99.4993 135.949 98.9879 136.266V136.266Z" fill="#A3EBFC"/>
  <path d="M98.3355 133.516C98.3355 133.689 98.2841 133.858 98.1879 134.002C98.0916 134.146 97.9548 134.259 97.7947 134.325C97.6347 134.391 97.4585 134.408 97.2886 134.375C97.1187 134.341 96.9626 134.257 96.8401 134.135C96.7176 134.012 96.6341 133.856 96.6003 133.686C96.5665 133.517 96.5839 133.34 96.6502 133.18C96.7165 133.02 96.8288 132.883 96.9728 132.787C97.1169 132.691 97.2862 132.64 97.4595 132.64C97.6918 132.64 97.9146 132.732 98.0789 132.896C98.2432 133.06 98.3355 133.283 98.3355 133.516Z" fill="white"/>
  <path d="M98.9881 135.907V136.266C98.7327 136.422 98.455 136.537 98.1646 136.608C97.7951 136.701 97.4106 136.718 97.0343 136.658C96.658 136.599 96.2975 136.464 95.9746 136.262V135.907C95.9746 135.51 96.1324 135.129 96.4134 134.848C96.6943 134.567 97.0753 134.409 97.4726 134.409C97.8699 134.409 98.2509 134.567 98.5318 134.848C98.8127 135.129 98.9705 135.51 98.9705 135.907H98.9881Z" fill="white"/>
  <path d="M115.352 135.727H111.585L113.122 133.84L111.585 131.956H115.352L116.889 133.84L115.352 135.727Z" fill="white"/>
  <path d="M105.672 131.956L106.285 133.2L107.652 133.397L106.662 134.361L106.899 135.727L105.672 135.084L104.45 135.727L104.682 134.361L103.692 133.397L105.059 133.2L105.672 131.956Z" fill="#A3EBFC"/>
  <path d="M141.816 133.078H119.592V134.611H141.816V133.078Z" fill="#263238"/>
  <path d="M159.686 133.078H150.974V134.611H159.686V133.078Z" fill="#455A64"/>
  <path d="M98.9879 148.806C98.7334 148.963 98.4554 149.079 98.1644 149.148C97.6174 149.281 97.0433 149.248 96.5147 149.055C95.986 148.862 95.5265 148.516 95.1943 148.062C94.8621 147.607 94.672 147.064 94.6481 146.502C94.6242 145.94 94.7675 145.383 95.06 144.902C95.3525 144.421 95.781 144.037 96.2913 143.8C96.8017 143.562 97.371 143.482 97.9273 143.568C98.4836 143.654 99.0019 143.902 99.4168 144.283C99.8316 144.663 100.124 145.158 100.258 145.705C100.4 146.29 100.354 146.905 100.126 147.461C99.8975 148.018 99.4993 148.489 98.9879 148.806V148.806Z" fill="#A3EBFC"/>
  <path d="M98.3355 146.056C98.3355 146.229 98.2841 146.398 98.1879 146.542C98.0916 146.686 97.9548 146.799 97.7947 146.865C97.6347 146.931 97.4585 146.948 97.2886 146.915C97.1187 146.881 96.9626 146.797 96.8401 146.675C96.7176 146.552 96.6341 146.396 96.6003 146.226C96.5665 146.056 96.5839 145.88 96.6502 145.72C96.7165 145.56 96.8288 145.423 96.9728 145.327C97.1169 145.231 97.2862 145.18 97.4595 145.18C97.6918 145.18 97.9146 145.272 98.0789 145.436C98.2432 145.6 98.3355 145.823 98.3355 146.056Z" fill="white"/>
  <path d="M98.9881 148.447V148.806C98.7336 148.963 98.4556 149.079 98.1646 149.148C97.7951 149.24 97.4106 149.258 97.0343 149.198C96.658 149.139 96.2975 149.004 95.9746 148.802V148.447C95.9746 148.05 96.1324 147.669 96.4134 147.388C96.6943 147.107 97.0753 146.949 97.4726 146.949C97.8699 146.949 98.2509 147.107 98.5318 147.388C98.8127 147.669 98.9705 148.05 98.9705 148.447H98.9881Z" fill="white"/>
  <path d="M115.352 148.267H111.585L113.122 146.384L111.585 144.501H115.352L116.889 146.384L115.352 148.267Z" fill="white"/>
  <path d="M115.404 148.377H111.353L112.982 146.384L111.353 144.391H115.404L117.029 146.384L115.404 148.377ZM111.817 148.158H115.321L116.766 146.384L115.321 144.632H111.817L113.262 146.384L111.817 148.158Z" fill="#EBEBEB"/>
  <path d="M105.672 144.501L106.285 145.74L107.652 145.937L106.662 146.901L106.899 148.267L105.672 147.624L104.45 148.267L104.682 146.901L103.692 145.937L105.059 145.74L105.672 144.501Z" fill="white"/>
  <path d="M107.043 148.482L105.672 147.764L104.301 148.482L104.564 146.958L103.456 145.854L104.989 145.631L105.672 144.242L106.355 145.631L107.888 145.854L106.78 146.932L107.043 148.482ZM103.929 146.034L104.805 146.883L104.599 148.083L105.676 147.514L106.754 148.083L106.548 146.883L107.424 146.034L106.215 145.854L105.676 144.763L105.12 145.854L103.929 146.034Z" fill="#EBEBEB"/>
  <path d="M141.816 145.617H119.592V147.15H141.816V145.617Z" fill="#DBDBDB"/>
  <path d="M159.686 145.617H150.974V147.15H159.686V145.617Z" fill="#C7C7C7"/>
  <path d="M166.97 152.652H85.7646V165.192H166.97V152.652Z" fill="#EBEBEB"/>
  <path d="M98.9882 161.346C98.7338 161.503 98.4557 161.619 98.1648 161.688C97.4704 161.854 96.7388 161.753 96.1158 161.404C95.4927 161.056 95.024 160.485 94.8032 159.806C94.5824 159.127 94.6256 158.389 94.9243 157.741C95.2229 157.092 95.7551 156.58 96.4146 156.306C97.0742 156.033 97.8126 156.018 98.4827 156.264C99.1528 156.511 99.7053 157.001 100.03 157.637C100.355 158.273 100.428 159.008 100.235 159.695C100.042 160.383 99.5966 160.972 98.9882 161.346V161.346Z" fill="#455A64"/>
  <path d="M98.3355 158.595C98.3355 158.769 98.2841 158.938 98.1879 159.082C98.0916 159.226 97.9548 159.338 97.7947 159.405C97.6347 159.471 97.4585 159.488 97.2886 159.455C97.1187 159.421 96.9626 159.337 96.8401 159.215C96.7176 159.092 96.6341 158.936 96.6003 158.766C96.5665 158.596 96.5839 158.42 96.6502 158.26C96.7165 158.1 96.8288 157.963 96.9728 157.867C97.1169 157.771 97.2862 157.719 97.4595 157.719C97.6918 157.719 97.9146 157.812 98.0789 157.976C98.2432 158.14 98.3355 158.363 98.3355 158.595Z" fill="white"/>
  <path d="M98.9881 160.987V161.346C98.7336 161.503 98.4556 161.619 98.1646 161.688C97.7953 161.78 97.4112 161.797 97.035 161.739C96.6588 161.68 96.2983 161.547 95.9746 161.346V160.987C95.9746 160.59 96.1324 160.209 96.4134 159.928C96.6943 159.647 97.0753 159.489 97.4726 159.489C97.8699 159.489 98.2509 159.647 98.5318 159.928C98.8127 160.209 98.9705 160.59 98.9705 160.987H98.9881Z" fill="white"/>
  <path d="M115.352 160.807H111.585L113.122 158.924L111.585 157.041H115.352L116.889 158.924L115.352 160.807Z" fill="white"/>
  <path d="M105.672 157.041L106.285 158.28L107.652 158.477L106.662 159.441L106.899 160.807L105.672 160.163L104.45 160.807L104.682 159.441L103.692 158.477L105.059 158.28L105.672 157.041Z" fill="white"/>
  <path d="M141.816 158.157H119.592V159.69H141.816V158.157Z" fill="#DBDBDB"/>
  <path d="M159.686 158.157H150.974V159.69H159.686V158.157Z" fill="#C7C7C7"/>
  <path d="M98.9882 173.886C98.7338 174.043 98.4557 174.159 98.1648 174.228C97.4704 174.394 96.7388 174.293 96.1158 173.944C95.4927 173.595 95.024 173.025 94.8032 172.346C94.5824 171.667 94.6256 170.929 94.9243 170.281C95.2229 169.632 95.7551 169.12 96.4146 168.846C97.0742 168.573 97.8126 168.558 98.4827 168.804C99.1528 169.051 99.7053 169.541 100.03 170.177C100.355 170.813 100.428 171.548 100.235 172.235C100.042 172.923 99.5966 173.512 98.9882 173.886V173.886Z" fill="#A6A6A6"/>
  <path d="M98.3355 171.14C98.3355 171.313 98.2841 171.482 98.1879 171.626C98.0916 171.77 97.9548 171.883 97.7947 171.949C97.6347 172.015 97.4585 172.033 97.2886 171.999C97.1187 171.965 96.9626 171.882 96.8401 171.759C96.7176 171.637 96.6341 171.481 96.6003 171.311C96.5665 171.141 96.5839 170.965 96.6502 170.804C96.7165 170.644 96.8288 170.508 96.9728 170.411C97.1169 170.315 97.2862 170.264 97.4595 170.264C97.6918 170.264 97.9146 170.356 98.0789 170.52C98.2432 170.685 98.3355 170.907 98.3355 171.14Z" fill="white"/>
  <path d="M98.9881 173.527V173.886C98.7336 174.043 98.4556 174.159 98.1646 174.228C97.7954 174.321 97.4111 174.339 97.0347 174.281C96.6584 174.222 96.2978 174.088 95.9746 173.886V173.527C95.9746 173.13 96.1324 172.749 96.4134 172.468C96.6943 172.187 97.0753 172.029 97.4726 172.029C97.8699 172.029 98.2509 172.187 98.5318 172.468C98.8127 172.749 98.9705 173.13 98.9705 173.527H98.9881Z" fill="white"/>
  <path d="M115.352 173.347H111.585L113.122 171.464L111.585 169.58H115.352L116.889 171.464L115.352 173.347Z" fill="white"/>
  <path d="M115.404 173.448H111.353L112.982 171.455L111.353 169.462H115.404L117.029 171.455L115.404 173.448ZM111.817 173.229H115.321L116.766 171.477L115.321 169.703H111.817L113.262 171.477L111.817 173.229Z" fill="#EBEBEB"/>
  <path d="M105.672 169.58L106.285 170.82L107.652 171.017L106.662 171.985L106.899 173.347L105.672 172.703L104.45 173.347L104.682 171.985L103.692 171.017L105.059 170.82L105.672 169.58Z" fill="white"/>
  <path d="M107.043 173.549L105.672 172.826L104.301 173.549L104.564 172.02L103.456 170.943L104.989 170.719L105.672 169.331L106.355 170.719L107.888 170.943L106.78 172.02L107.043 173.549ZM105.672 172.572L106.749 173.137L106.543 171.937L107.419 171.087L106.211 170.912L105.672 169.817L105.133 170.912L103.929 171.087L104.805 171.937L104.599 173.137L105.672 172.572Z" fill="#EBEBEB"/>
  <path d="M141.816 170.697H119.592V172.23H141.816V170.697Z" fill="#DBDBDB"/>
  <path d="M159.686 170.697H150.974V172.23H159.686V170.697Z" fill="#C7C7C7"/>
  <path d="M98.4318 196.539H62.8749C58.622 181.621 55.2012 170.259 55.2012 170.259H88.914C88.914 170.259 93.0794 181.512 98.4318 196.539Z" fill="#37474F"/>
  <path d="M68.083 196.539H67.3515C65.2447 189.51 63.0547 182.523 60.9085 175.485C60.8779 175.393 61.0224 175.349 61.0575 175.441C61.4955 176.659 61.9335 177.876 62.3715 179.098C64.4213 184.862 66.3003 190.688 68.083 196.539Z" fill="#263238"/>
  <path d="M88.1429 170.273C88.1035 170.978 86.2245 177.429 85.2521 187.083C84.8974 190.644 84.4944 193.995 84.0651 196.539H36.8794C32.2103 182.112 39.1395 170.259 39.1395 170.259C39.1395 170.259 88.1473 170.242 88.1429 170.273Z" fill="#37474F"/>
  <path d="M78.7132 186.251C78.8796 188.673 78.9365 191.099 78.9059 193.522C78.8291 194.526 78.8203 195.534 78.8796 196.539H78.0605C77.8634 195.002 78.0605 193.088 78.0605 191.577C78.0343 185.318 77.2371 179.129 76.2735 172.953C76.2726 172.925 76.2816 172.898 76.2987 172.876C76.3158 172.855 76.3401 172.839 76.3672 172.834C76.3944 172.828 76.4227 172.832 76.4472 172.845C76.4717 172.858 76.4908 172.879 76.5013 172.905C77.6947 177.266 78.4359 181.738 78.7132 186.251V186.251Z" fill="#263238"/>
  <path d="M84.5646 189.378C84.5208 190.666 84.1704 194.095 83.1586 196.539H82.4535C83.8244 193.197 83.7456 186.676 83.6448 185.151C83.3601 180.684 83.0141 176.488 82.2564 171.784C82.2301 171.635 82.4754 171.626 82.506 171.762C83.8419 177.438 84.7486 183.553 84.5646 189.378Z" fill="#263238"/>
  <path d="M39.7925 176.536C38.4259 182.445 39.0917 188.8 40.3969 194.647C40.5327 195.282 40.686 195.913 40.8349 196.539H40.1253C38.1938 188.388 37.6025 179.952 41.0013 172.046C41.0451 171.95 41.1897 172.046 41.1503 172.13C40.5864 173.562 40.1325 175.035 39.7925 176.536Z" fill="#263238"/>
  <path d="M118.129 84.096L110.376 108.773C110.065 109.491 110.402 110.113 111.121 110.153L124.033 110.888C124.428 110.883 124.814 110.764 125.144 110.547C125.475 110.33 125.737 110.023 125.899 109.662L133.634 85.0027C133.945 84.28 133.608 83.6624 132.889 83.623L120.012 82.8871C119.616 82.8882 119.228 83.0026 118.894 83.2168C118.56 83.4309 118.295 83.736 118.129 84.096Z" fill="#37474F"/>
  <path d="M119.661 84.188L111.926 108.847C111.615 109.566 111.953 110.183 112.675 110.227L125.583 110.963C125.979 110.956 126.365 110.837 126.696 110.62C127.027 110.403 127.29 110.097 127.453 109.737L135.184 85.0728C135.495 84.3544 135.162 83.7588 134.44 83.6974L121.527 82.9572C121.132 82.9651 120.747 83.0849 120.416 83.3028C120.086 83.5206 119.824 83.8275 119.661 84.188V84.188Z" fill="#455A64"/>
  <path d="M123.135 85.5327C123.118 85.7495 123.037 85.9564 122.902 86.1271C122.767 86.2978 122.585 86.4247 122.378 86.4917C122.171 86.5588 121.949 86.5629 121.739 86.5037C121.53 86.4444 121.343 86.3244 121.202 86.1588C121.061 85.9932 120.972 85.7895 120.947 85.5735C120.922 85.3574 120.961 85.1388 121.06 84.9451C121.159 84.7515 121.313 84.5916 121.503 84.4857C121.693 84.3797 121.911 84.3325 122.127 84.3501C122.418 84.3735 122.687 84.5112 122.876 84.733C123.065 84.9547 123.158 85.2423 123.135 85.5327V85.5327Z" fill="#263238"/>
  <path d="M74.3416 119.622C80.6181 135.657 95.6809 156.935 102.461 157.47C105.685 157.728 111.396 158.88 115.877 155.451C125.653 147.97 134.4 132.999 136.559 124.243C137.33 121.129 122.447 113.293 120.012 115.706C114.318 121.365 107.376 132.749 106.434 132.618C102.982 132.127 90.149 119.916 81.2006 111.335C70.3382 100.911 71.8318 113.232 74.3416 119.622Z" fill="#AD6359"/>
  <path d="M138.014 107.985C136.814 101.476 135.508 99.9911 137.409 93.9686C138.658 90.0266 136.669 87.5168 133.607 90.5565C128.597 95.5235 128.382 104.244 129.179 107.288L138.014 107.985Z" fill="#AD6359"/>
  <path d="M135.631 126.941C135.631 126.941 139.074 118.212 138.482 111.173C138.071 106.294 135.995 95.7731 122.824 89.4221C119.701 87.9154 114.182 87.9855 118.391 92.2998C121.378 95.3658 124.204 96.4038 125.618 98.5018C125.618 98.5018 118.61 99.4216 117.217 102.61C116.008 105.399 114.996 108.269 114.191 111.199C114.693 111.47 115.213 111.709 115.746 111.913C115.746 111.913 114.541 114.94 116.543 119.478L135.631 126.941Z" fill="#AD6359"/>
  <path d="M137.348 106.557C135.504 104.77 131.531 101.051 127.222 99.137C122.439 97.0127 112.645 94.2095 111.112 97.7573C109.991 100.359 113.635 101.761 113.635 101.761C113.635 101.761 109.342 101.454 108.843 104.025C108.405 106.368 111.27 107.284 111.27 107.284C111.27 107.284 108.642 107.547 108.642 109.89C108.642 112.706 114.156 111.694 116.618 114.555C117.161 115.194 137.348 106.557 137.348 106.557Z" fill="#AD6359"/>
  <path d="M125.82 104.568C123.81 103.171 118.431 101.174 113.722 101.695C113.613 101.695 113.565 101.791 113.665 101.8C117.81 102.243 121.885 103.188 125.802 104.612C125.829 104.625 125.842 104.581 125.82 104.568Z" fill="#263238"/>
  <path d="M123.516 109.338C121.659 108.309 116.026 106.5 111.252 107.187C111.147 107.187 111.103 107.292 111.204 107.301C115.357 107.528 119.472 108.226 123.468 109.382C123.474 109.388 123.482 109.392 123.49 109.392C123.499 109.393 123.507 109.39 123.514 109.384C123.52 109.378 123.524 109.37 123.524 109.361C123.525 109.353 123.522 109.344 123.516 109.338Z" fill="#263238"/>
  <path d="M93.9338 120.927L91.5423 123.831L91.0473 124.436L81.4683 136.008C81.4683 136.008 72.8003 121.852 71.0483 113.801C70.0014 108.983 70.7548 106.114 72.8616 105.593C73.0184 105.556 73.1782 105.533 73.339 105.523C74.7012 105.405 76.532 106.123 78.722 107.739C84.889 112.294 93.9338 120.927 93.9338 120.927Z" fill="#A3EBFC"/>
  <path d="M93.3989 120.45C93.1778 121.176 92.907 121.886 92.5886 122.574L93.9026 120.998C93.9059 120.979 93.9059 120.959 93.9026 120.941C93.8632 120.862 93.6836 120.691 93.3989 120.45ZM78.6865 107.748C77.8353 108.289 77.0554 108.935 76.3651 109.671C74.2669 111.866 73.0938 114.785 73.0889 117.822C73.0953 118.638 73.1479 119.452 73.2465 120.262C73.4626 120.761 73.6816 121.26 73.9035 121.76C73.8641 121.436 73.8203 121.116 73.7765 120.787C73.4712 119.039 73.4475 117.252 73.7064 115.496C73.9832 114.112 74.5101 112.789 75.2614 111.594C76.187 110.1 77.4204 108.82 78.8792 107.84C78.8223 107.805 78.7741 107.766 78.7215 107.726L78.6865 107.748Z" fill="white"/>
  <path d="M79.6065 131.194C80.1234 129.977 85.4451 122.666 89.8776 118.024C89.891 118.008 89.9098 117.999 89.9299 117.998C89.9501 117.997 89.9698 118.004 89.9849 118.017C90.0001 118.03 90.0092 118.049 90.0105 118.069C90.0117 118.089 90.0049 118.109 89.9915 118.124C89.5535 118.694 80.7935 130.436 79.7598 131.326C79.6766 131.4 79.5715 131.282 79.6065 131.194Z" fill="#263238"/>
  <path opacity="0.05" d="M87.6001 128.61L81.4681 136.003C81.4681 136.003 72.8001 121.852 71.0481 113.801C69.8392 108.247 71.0175 105.295 73.8951 105.519L87.6001 128.61Z" fill="black"/>
  <path d="M89.3518 172.217C88.1254 173.531 36.2706 179.072 35.9728 178.713C35.18 177.745 39.9498 125.338 61.1928 106.141C64.9377 102.759 71.5515 103.723 74.6175 105.462C76.1461 106.338 78.8092 113.573 81.4153 122.031C83.3863 128.492 90.1052 171.367 89.3518 172.217Z" fill="#A3EBFC"/>
  <path d="M89.3518 172.217C89.0803 172.511 86.2859 173.019 82.1117 173.623L81.6387 173.689C79.5275 173.991 77.0922 174.315 74.4642 174.644L73.8948 174.718C66.3919 175.66 57.4436 176.667 50.1202 177.438L49.8837 177.46C41.9997 178.292 36.0735 178.835 35.9728 178.713C35.872 178.59 35.8721 176.405 36.2181 172.962C36.2181 172.817 36.2487 172.664 36.2619 172.524C37.0897 164.565 39.3848 150.107 44.0539 136.122C44.1284 135.894 44.2072 135.684 44.2816 135.443C45.6788 131.273 47.3272 127.193 49.2179 123.223C49.2749 123.104 49.3274 122.99 49.3887 122.872C51.2395 118.977 53.4695 115.275 56.0463 111.817C56.1339 111.703 56.2171 111.594 56.3091 111.489C57.7736 109.566 59.4081 107.779 61.1928 106.149C61.6933 105.703 62.2481 105.322 62.8441 105.015C62.9799 104.945 63.12 104.879 63.2602 104.818C65.1279 104.034 67.1629 103.733 69.1776 103.942L69.6769 103.994C71.4041 104.163 73.082 104.666 74.6175 105.475C75.2176 105.821 75.9972 107.144 76.8776 109.154C76.9214 109.242 76.9608 109.338 77.0003 109.434C78.3143 112.5 79.8867 117.073 81.4153 122.044C81.954 123.796 82.8519 128.264 83.8462 133.835L83.9119 134.212C84.2579 136.135 84.6127 138.193 84.9675 140.313C85.02 140.616 85.0726 140.913 85.1208 141.216C85.8435 145.543 86.5662 150.089 87.21 154.329C87.2319 154.5 87.2582 154.675 87.2889 154.842C87.832 158.468 88.3138 161.85 88.6861 164.649C88.7124 164.872 88.7386 165.087 88.7693 165.306C89.2642 169.326 89.5183 172.011 89.3518 172.217Z" fill="#A3EBFC"/>
  <path d="M72.4802 167.136C71.5965 165.901 70.4716 164.858 69.1733 164.07C67.7788 163.26 66.2411 162.726 64.6444 162.498C62.9712 162.209 61.2148 162.06 59.6468 161.333C58.1488 160.654 57.0976 159.441 56.0508 158.219C55.7749 157.899 55.4902 157.579 55.2011 157.273C55.5296 157.049 55.8625 156.835 56.2041 156.611C58.1707 155.402 60.3432 154.491 62.1609 153.055C63.806 151.779 64.9577 149.973 65.4196 147.943C65.8614 145.943 65.7092 143.857 64.9816 141.943C64.2092 140.011 62.9363 138.319 61.2937 137.041C59.6097 135.752 57.6842 134.813 55.6312 134.281C53.5781 133.748 51.4392 133.632 49.3407 133.94C47.5849 134.175 45.8747 134.674 44.2686 135.421C44.1942 135.649 44.1153 135.859 44.0409 136.1C44.8194 135.708 45.6279 135.378 46.4586 135.114C50.4658 133.798 54.8294 134.104 58.6131 135.968C60.4379 136.876 62.017 138.21 63.2165 139.858C64.3705 141.488 65.0208 143.42 65.0868 145.416C65.178 147.388 64.6127 149.335 63.4793 150.952C62.1653 152.735 60.1636 153.812 58.2627 154.842C57.0889 155.481 55.9501 156.156 54.8419 156.905C54.2012 156.24 53.4323 155.713 52.5819 155.354C51.1689 154.839 49.6209 154.829 48.2019 155.328C45.114 156.366 43.2787 159.358 42.924 162.498C42.7509 164.249 42.954 166.017 43.5196 167.684C42.2324 169.003 40.7929 170.165 39.2316 171.144C38.2942 171.723 37.2877 172.183 36.2357 172.511C36.2357 172.66 36.205 172.813 36.1919 172.949C36.3802 172.896 36.5686 172.839 36.7525 172.773C39.4375 171.867 41.6713 170.124 43.6905 168.166C44.2526 169.686 44.9874 171.136 45.8805 172.489C47.0366 174.273 48.3721 175.934 49.8663 177.447L50.1028 177.425C49.239 176.513 48.4302 175.551 47.6806 174.543C46.1105 172.528 44.8647 170.28 43.9883 167.881C44.7373 167.136 45.46 166.361 46.1783 165.595C47.5624 164.088 48.9246 162.529 50.4006 161.123C51.7767 159.8 53.2609 158.594 54.8376 157.518C55.7793 158.521 56.5896 159.655 57.6145 160.584C58.8237 161.589 60.2776 162.255 61.828 162.516C63.4355 162.853 65.0911 162.989 66.6723 163.475C68.0801 163.919 69.3734 164.667 70.461 165.665C71.5573 166.641 72.4358 167.837 73.0395 169.175C73.6432 170.513 73.9586 171.963 73.965 173.43C73.9621 173.863 73.9285 174.295 73.8643 174.723L74.4337 174.648C74.7486 171.988 74.0513 169.306 72.4802 167.136V167.136ZM52.4242 158.679C50.764 160.046 49.2078 161.535 47.7682 163.133C46.4542 164.543 45.1884 166.02 43.8262 167.399C43.5862 166.621 43.419 165.822 43.3269 165.012C42.9853 161.946 43.9182 158.442 46.555 156.611C47.7594 155.763 49.2089 155.334 50.6809 155.389C52.1235 155.489 53.4766 156.125 54.474 157.172C53.7776 157.649 53.0899 158.144 52.4242 158.679ZM87.1882 154.299C85.6728 155.512 84.2317 156.835 82.5367 157.803C80.097 159.195 76.7419 159.936 74.5213 157.724C73.5962 156.826 73.0388 155.615 72.9578 154.329C72.8768 153.042 73.278 151.771 74.0833 150.764C74.9593 149.538 76.0411 148.508 76.8909 147.26C77.5875 146.216 78.1955 145.116 78.7086 143.971C79.7967 144.297 80.9622 144.256 82.0242 143.852C83.3201 143.331 84.401 142.386 85.0902 141.172C85.042 140.87 84.9895 140.572 84.9369 140.27C84.5935 140.942 84.1505 141.56 83.6229 142.1C83.1361 142.618 82.5398 143.021 81.8776 143.28C81.2154 143.538 80.5038 143.645 79.7948 143.594C79.508 143.565 79.2239 143.514 78.9451 143.441C79.0108 143.305 79.0721 143.165 79.1334 143.003C80.3642 140.191 81.3935 137.217 83.3295 134.781C83.5013 134.562 83.684 134.352 83.877 134.151L83.8113 133.774C81.9892 135.666 80.8153 138.128 79.7773 140.506C79.3699 141.439 78.9714 142.376 78.5377 143.305C77.5654 142.958 76.6847 142.395 75.9623 141.658C73.584 139.236 73.4044 135.495 73.6497 132.307C73.8073 130.362 74.0877 128.426 74.184 126.481C74.2047 124.561 74.0581 122.643 73.746 120.748C73.4407 118.999 73.417 117.213 73.6759 115.457C73.9526 114.072 74.4796 112.75 75.2308 111.554C75.7152 110.759 76.2915 110.024 76.9478 109.364C76.9084 109.268 76.869 109.172 76.8252 109.084C76.6587 109.242 76.4967 109.404 76.3346 109.574C74.2245 111.799 73.0608 114.756 73.089 117.822C73.089 119.819 73.4876 121.786 73.6409 123.774C73.7452 125.823 73.6469 127.877 73.3474 129.906C72.9401 133.45 72.5766 137.352 74.4249 140.576C75.2974 142.093 76.6713 143.257 78.31 143.87C78.1041 144.308 77.8939 144.746 77.6661 145.149C77.2634 145.897 76.8128 146.618 76.3171 147.308C75.8484 147.948 75.3228 148.543 74.806 149.143C73.8555 150.252 72.8875 151.46 72.616 152.923C72.3828 154.18 72.5771 155.478 73.1679 156.611C73.7382 157.761 74.695 158.672 75.8703 159.187C77.2932 159.735 78.8616 159.777 80.3116 159.305C83.0535 158.503 85.1296 156.572 87.289 154.829C87.2364 154.662 87.2101 154.487 87.1882 154.316V154.299ZM88.7475 165.275C87.3678 164.18 85.8961 163.085 84.0916 162.94C83.2094 162.839 82.3202 163.058 81.5862 163.558C80.9151 164.065 80.4153 164.765 80.154 165.564C79.5563 167.325 79.6265 169.243 80.3511 170.956C80.7691 171.95 81.3626 172.861 82.1031 173.645L81.63 173.711C81.1382 173.179 80.7105 172.591 80.3554 171.959C79.8526 171.057 79.5186 170.072 79.3699 169.05C79.0984 167.277 79.3699 165.279 80.535 163.856C81.8008 162.314 83.8638 162.156 85.6377 162.805C86.7428 163.251 87.7691 163.872 88.6774 164.644C88.6906 164.859 88.7169 165.078 88.7475 165.292V165.275ZM69.204 104.656C69.3616 104.437 69.5062 104.218 69.642 103.981L69.1426 103.929C68.1263 105.488 66.9182 106.914 65.5467 108.173L65.2751 108.431C64.999 107.463 64.5654 106.547 63.9918 105.72C63.7605 105.397 63.5042 105.092 63.2253 104.809C63.0851 104.87 62.9449 104.936 62.8092 105.006C63.7271 105.939 64.4075 107.08 64.7933 108.331C64.8371 108.475 64.8765 108.62 64.9159 108.769C63.7294 109.945 62.3407 110.897 60.8163 111.581C59.3796 112.163 57.6276 112.281 56.2742 111.484C56.1822 111.589 56.099 111.699 56.0114 111.813C57.1315 112.455 58.4503 112.66 59.7125 112.386C61.7229 112.005 63.4399 110.678 64.9422 109.36L65.043 109.272C65.6737 111.979 65.4372 114.835 65.862 117.594C66.3482 120.735 67.8549 123.91 67.0797 127.125C66.8246 128.385 66.1386 129.518 65.1393 130.327C64.5376 130.738 63.8457 130.998 63.1221 131.085C62.3985 131.172 61.6646 131.083 60.9827 130.826C57.8817 129.832 56.0727 126.884 53.506 125.071C52.1902 124.218 50.8005 123.485 49.3538 122.881C49.2925 122.999 49.2399 123.113 49.183 123.231C50.059 123.647 50.935 124.037 51.7321 124.48C52.3593 124.81 52.9598 125.19 53.5279 125.614C54.192 126.136 54.8239 126.698 55.4201 127.296C56.6071 128.452 57.7722 129.683 59.2176 130.528C60.5316 131.295 62.104 131.781 63.6282 131.488C64.282 131.343 64.8977 131.061 65.4346 130.661C65.9714 130.261 66.4172 129.752 66.7424 129.166C67.4096 127.983 67.754 126.644 67.741 125.286C67.741 123.534 67.2636 121.782 66.8388 120.086C66.5988 119.185 66.4073 118.271 66.265 117.349C66.1511 116.534 66.0854 115.72 66.0372 114.901C65.9884 113.278 65.8538 111.66 65.6343 110.052C65.5729 109.68 65.4985 109.312 65.4109 108.944C66.8313 107.66 68.1035 106.222 69.204 104.656V104.656Z" fill="white"/>
  <path d="M56.1472 113.442C47.6105 131.212 36.1831 175.371 34.5056 181.862C33.3624 186.268 56.3705 190.732 56.9794 187.67C57.6802 184.166 66.4796 132.482 65.6036 113.867C65.1262 103.679 59.0993 107.31 56.1472 113.442Z" fill="#AD6359"/>
  <path d="M57.2642 185.633C56.9926 188.98 55.0741 195.786 53.4623 196.894C51.8505 198.002 43.0072 198.248 38.5703 198.484C34.1334 198.721 33.1785 197.538 33.1698 195.992C33.161 194.446 42.486 193.675 42.486 193.675C42.486 193.675 30.222 197.902 27.1166 198.646C24.0112 199.391 16.8937 201.594 15.7286 199.054C15.168 197.906 17.082 196.618 17.082 196.618C17.082 196.618 14.0992 197.661 13.5386 196.18C12.8991 194.494 15.2599 193.425 15.2599 193.425C15.2599 193.425 13.3853 193.907 13.2714 192.51C13.0086 189.396 24.7733 187.254 24.7733 187.254C24.7733 187.254 15.9345 192.146 15.5096 189.615C14.9227 186.111 33.3055 181.266 35.1583 179.628C36.5049 178.381 37.754 177.032 38.8944 175.594L57.2642 185.633Z" fill="#AD6359"/>
  <path d="M33.2881 196.763C33.2457 196.547 33.2563 196.323 33.3188 196.112C33.3813 195.901 33.494 195.708 33.6473 195.55C33.9514 195.24 34.3053 194.984 34.6941 194.792C35.4965 194.396 36.3337 194.075 37.1951 193.833C38.9252 193.294 40.6991 192.886 42.4511 192.33C40.6006 192.398 38.7665 192.703 36.9936 193.237C36.0888 193.494 35.2247 193.877 34.4269 194.376C34.0143 194.631 33.6593 194.97 33.3845 195.37C33.2501 195.574 33.1707 195.81 33.1538 196.054C33.1369 196.298 33.1832 196.542 33.2881 196.763V196.763Z" fill="#263238"/>
  <path d="M17.082 196.618C18.3479 196.237 19.5918 195.808 20.8313 195.379C22.0709 194.949 23.306 194.503 24.5412 194.065L28.2335 192.689C29.4643 192.251 30.6907 191.778 31.9346 191.336C30.6313 191.55 29.3437 191.85 28.0802 192.234C26.81 192.593 25.5661 193.031 24.3266 193.478C23.087 193.925 21.865 194.415 20.6605 194.945C19.456 195.475 18.2515 195.996 17.082 196.618Z" fill="#263238"/>
  <path d="M28.7633 188.371C27.5601 188.513 26.3686 188.741 25.198 189.054C24.0232 189.356 22.8652 189.72 21.729 190.145C20.5911 190.564 19.4782 191.048 18.3958 191.594C17.3083 192.129 16.2602 192.741 15.2598 193.425C16.3854 192.987 17.476 192.47 18.5929 192.032C19.7098 191.594 20.8224 191.156 21.948 190.718C23.0737 190.28 24.2037 189.899 25.3338 189.501C26.4638 189.102 27.6157 188.747 28.7633 188.371Z" fill="#263238"/>
  <path d="M26.7748 185.493C24.8321 185.746 22.931 186.252 21.1202 187C19.2936 187.712 17.569 188.661 15.9912 189.825C17.8002 189.072 19.5565 188.287 21.3523 187.582C23.1481 186.877 24.9658 186.189 26.7748 185.493Z" fill="#263238"/>
  <path d="M66.0462 133.857L45.5391 133.958C45.5391 133.958 51.106 117.476 56.4058 110.665C61.7056 103.854 65.9586 104.752 66.4317 112.768C66.9047 120.783 66.0462 133.857 66.0462 133.857Z" fill="#A3EBFC"/>
  <path d="M66.4317 112.768C66.458 113.131 66.4755 113.512 66.4886 113.893C66.4886 114.064 66.4886 114.235 66.5149 114.41C66.804 122.439 66.0506 133.857 66.0506 133.857L60.4793 133.888H59.923L45.5435 133.967C45.5435 133.967 47.9043 126.959 51.0053 120.222C51.1104 119.999 51.2112 119.784 51.3251 119.548C52.9062 116.166 54.667 112.903 56.4015 110.674C61.7057 103.854 65.9543 104.757 66.4317 112.768Z" fill="#A3EBFC"/>
  <path d="M49.4282 133.94L53.5936 133.914C52.2093 133.752 50.8104 133.761 49.4282 133.94V133.94ZM66.2781 117.331C66.1642 116.517 66.0985 115.702 66.0503 114.883C66.0015 113.261 65.867 111.642 65.6474 110.034C65.586 109.662 65.5116 109.294 65.424 108.926C65.5028 108.847 65.586 108.777 65.6693 108.694C65.6079 108.536 65.5466 108.388 65.4809 108.256C65.4196 108.322 65.3495 108.379 65.2882 108.444C65.1696 108.024 65.0233 107.611 64.8502 107.209C64.6115 106.897 64.3138 106.636 63.9742 106.438C64.3418 107.036 64.6359 107.676 64.8502 108.344C64.894 108.488 64.9334 108.633 64.9728 108.782C63.7863 109.958 62.3976 110.91 60.8732 111.594C59.3183 112.229 57.3911 112.312 56.0026 111.278C55.9194 111.392 55.8405 111.502 55.7617 111.62C56.3409 112.017 56.9954 112.291 57.6847 112.425C58.3741 112.559 59.0836 112.551 59.7694 112.4C61.7798 112.019 63.4968 110.691 64.9991 109.373L65.0999 109.285C65.7306 111.992 65.4941 114.848 65.9189 117.607C66.081 118.632 66.3569 119.666 66.611 120.7C66.611 120.117 66.611 119.535 66.611 118.948C66.4577 118.396 66.3525 117.866 66.2781 117.331ZM65.1524 130.305C64.5507 130.716 63.8588 130.976 63.1352 131.063C62.4116 131.15 61.6778 131.061 60.9958 130.804C57.8948 129.81 56.0858 126.862 53.5191 125.049C52.328 124.268 51.0687 123.597 49.7567 123.043C49.6998 123.161 49.6516 123.284 49.599 123.407C50.3261 123.753 51.0576 124.09 51.7452 124.462C52.3724 124.793 52.9729 125.172 53.541 125.597C54.2051 126.118 54.837 126.68 55.4332 127.278C56.6202 128.435 57.7853 129.666 59.2307 130.511C60.5447 131.277 62.1171 131.764 63.6413 131.47C64.6805 131.25 65.6101 130.674 66.2693 129.841C66.2693 129.582 66.2956 129.311 66.3044 129.03C66.0052 129.525 65.6142 129.958 65.1524 130.305Z" fill="white"/>
  <path d="M48.1802 129.21C49.4942 128.807 58.9594 128.181 65.6696 128.627C65.6905 128.627 65.7105 128.636 65.7253 128.651C65.7401 128.665 65.7484 128.685 65.7484 128.706C65.7484 128.727 65.7401 128.747 65.7253 128.762C65.7105 128.777 65.6905 128.785 65.6696 128.785C64.9293 128.829 49.5818 129.661 48.1802 129.425C48.0444 129.42 48.0663 129.258 48.1802 129.21Z" fill="#263238"/>
  <path d="M67.347 121.427C67.347 121.413 67.3415 121.399 67.3316 121.39C67.3218 121.38 67.3084 121.374 67.2944 121.374C67.2805 121.374 67.2671 121.38 67.2573 121.39C67.2474 121.399 67.2419 121.413 67.2419 121.427C67.0544 122.124 66.9081 122.832 66.8039 123.547C66.7732 123.709 66.7513 123.875 66.7207 124.037C66.6637 122.285 66.5805 120.581 66.4885 118.864C66.4885 118.786 66.3571 118.786 66.3615 118.864C66.4141 124.817 66.2564 130.252 65.8928 133.695L64.1146 133.844C64.0898 133.849 64.0676 133.862 64.0516 133.882C64.0356 133.902 64.0269 133.926 64.0269 133.951C64.0269 133.977 64.0356 134.001 64.0516 134.021C64.0676 134.04 64.0898 134.054 64.1146 134.059L66.3746 134.137C66.471 134.137 66.8477 129.179 66.7557 125.272C66.8783 124.707 67.0097 124.147 67.1017 123.577C67.2383 122.868 67.3203 122.149 67.347 121.427Z" fill="#263238"/>
  <path d="M48.3115 133.962C47.3873 134.019 46.4631 134.067 45.5433 134.094H45.3594L45.4163 133.914C45.7755 132.784 46.1434 131.658 46.5464 130.546C46.9493 129.433 47.3567 128.317 47.7947 127.217C48.2327 126.118 48.6707 125.027 49.1831 123.941C49.6956 122.855 50.1861 121.79 50.7599 120.752L49.4459 124.064L48.1845 127.375L46.923 130.69L45.666 134.028L45.5433 133.853C46.4631 133.857 47.3873 133.905 48.3115 133.962Z" fill="#263238"/>
  <path d="M73.3563 114.541C70.2378 115.571 64.3511 111.186 61.8501 107.437C61.6793 107.179 61.8501 96.2812 61.6749 94.1218C61.6355 93.6838 75.5463 96.233 75.5463 96.233C75.5463 96.233 74.6047 100.885 74.9551 104.651C74.9901 104.967 76.3698 113.547 73.3563 114.541Z" fill="#AD6359"/>
  <path d="M75.5506 96.2286C75.5506 96.2943 75.4849 96.5658 75.4148 97.0038C75.2922 97.7484 75.1082 98.9529 74.9987 100.32C74.8635 101.755 74.8533 103.2 74.9681 104.638C74.9725 104.738 74.9842 104.838 75.0031 104.936V104.984C75.0338 105.159 75.06 105.396 75.0907 105.676C74.6583 105.773 74.2189 105.836 73.7767 105.865C66.3701 106.338 63.0939 97.4856 62.104 94.0605L62.3405 94.0824C62.7041 94.1087 63.1859 94.1656 63.764 94.2401L64.202 94.3014C65.1262 94.4328 66.23 94.608 67.3775 94.7919C67.7542 94.8533 68.1309 94.9102 68.5163 94.9803C69.3398 95.1248 70.172 95.265 70.9428 95.392C71.2757 95.4577 71.6042 95.5146 71.9108 95.5672C72.2174 95.6198 72.5897 95.6855 72.9007 95.738L73.3387 95.8169L73.5533 95.8607L74.7053 96.0665L75.2572 96.1629C75.3355 96.1758 75.413 96.1933 75.4893 96.2154C75.5112 96.2154 75.5199 96.2154 75.5287 96.2154L75.5506 96.2286Z" fill="#263238"/>
  <path d="M59.012 78.2443C57.698 83.1193 60.7027 96.9732 64.2373 99.9691C69.3707 104.31 77.5394 104.472 81.1792 98.3661C84.6832 92.4487 80.4652 74.4556 76.5364 71.7576C70.746 67.7849 60.9567 71.0436 59.012 78.2443Z" fill="#AD6359"/>
  <path d="M61.022 91.8048C63.4967 91.0077 62.4017 84.5691 62.4017 84.5691C62.4017 84.5691 65.3539 82.8171 65.3144 76.7902C65.3144 76.7902 68.5031 82.1645 78.818 79.0021C78.8089 77.0772 78.1961 75.2036 77.066 73.6454C78.4318 75.2738 79.6623 77.0112 80.7452 78.84C80.7452 78.84 81.6956 69.642 73.6627 67.89C70.4653 67.1936 65.9846 68.2536 59.7124 72.8832C59.7124 72.8832 57.6582 68.9982 56.9618 69.6815C56.2654 70.3647 58.4816 73.9388 58.4816 73.9388C58.4816 73.9388 55.293 73.5446 54.8988 74.2673C54.5572 74.8893 57.6056 75.1433 57.6056 75.1433C57.6056 75.1433 53.2256 77.4428 54.9776 82.6331C56.5501 87.381 59.7956 92.2034 61.022 91.8048Z" fill="#263238"/>
  <path d="M58.4292 74.898C57.0885 75.0922 55.8649 75.7697 54.9889 76.803C54.1128 77.8364 53.6447 79.1543 53.6726 80.5088C53.7207 82.0549 54.3909 83.6142 55.1267 84.9545C55.9554 86.3773 56.9638 87.6874 58.127 88.8527C58.1883 88.9184 58.2847 88.8089 58.219 88.7432C57.1926 87.6361 56.3432 86.3774 55.7005 85.0114C55.0127 83.7382 54.5336 82.363 54.2814 80.938C54.1126 79.6115 54.4485 78.2701 55.2225 77.1797C55.9965 76.0893 57.152 75.3296 58.4599 75.0513C58.478 75.0451 58.4933 75.0326 58.5028 75.016C58.5124 74.9994 58.5156 74.98 58.5118 74.9612C58.5081 74.9424 58.4976 74.9257 58.4824 74.9141C58.4672 74.9024 58.4483 74.8967 58.4292 74.898Z" fill="#263238"/>
  <path d="M67.3777 67.5002C65.6547 68.2265 64.0348 69.1764 62.5597 70.3253C61.1047 71.3497 59.8365 72.6164 58.8104 74.0702C58.7622 74.1447 58.8586 74.2323 58.9199 74.1622C61.2194 71.6962 64.2153 69.8304 67.2419 68.3587C70.0582 66.979 73.5754 66.3526 76.2735 68.3587C76.2774 68.3642 76.2825 68.3688 76.2885 68.372C76.2945 68.3752 76.3011 68.377 76.3079 68.3772C76.3147 68.3774 76.3215 68.376 76.3276 68.3732C76.3338 68.3703 76.3392 68.3661 76.3435 68.3608C76.3477 68.3555 76.3507 68.3493 76.3521 68.3426C76.3535 68.336 76.3534 68.3291 76.3517 68.3225C76.35 68.316 76.3468 68.3099 76.3423 68.3047C76.3379 68.2996 76.3323 68.2956 76.326 68.293C73.8382 66.138 70.2553 66.3351 67.3777 67.5002Z" fill="#263238"/>
  <path d="M62.5335 89.5929C62.5335 89.5929 59.3098 85.1297 57.2775 86.286C55.2452 87.4424 57.7155 93.9423 60.1333 94.8008C60.4359 94.9322 60.7619 95.0011 61.0917 95.0033C61.4216 95.0056 61.7485 94.9412 62.0529 94.814C62.3572 94.6867 62.6327 94.4993 62.8629 94.263C63.093 94.0266 63.273 93.7462 63.392 93.4386L62.5335 89.5929Z" fill="#AD6359"/>
  <path d="M58.0307 88.13C57.9913 88.13 57.9869 88.1826 58.0307 88.1957C59.7258 88.8527 60.6368 90.3857 61.2807 92.0107C60.7726 91.3975 60.085 91.0646 59.2571 91.6734C59.2133 91.7041 59.2571 91.7742 59.3009 91.761C59.596 91.6622 59.9144 91.6572 60.2124 91.7466C60.5104 91.836 60.7734 92.0154 60.9653 92.2603C61.2815 92.6691 61.5545 93.1094 61.78 93.5743C61.8589 93.7233 62.1304 93.64 62.0735 93.4648C62.0727 93.4532 62.0727 93.4415 62.0735 93.4298C62.0603 91.2924 60.3434 88.314 58.0307 88.13Z" fill="#263238"/>
  <path d="M73.4572 86.1984C73.4572 86.1677 73.3959 86.2553 73.4003 86.2948C73.5974 87.2146 73.6631 88.3052 72.8791 88.7607C72.8744 88.7627 72.8704 88.7661 72.8676 88.7704C72.8648 88.7747 72.8633 88.7797 72.8633 88.7848C72.8633 88.7899 72.8648 88.7949 72.8676 88.7992C72.8704 88.8035 72.8744 88.8068 72.8791 88.8089C73.8908 88.476 73.7901 87.0437 73.4572 86.1984Z" fill="#263238"/>
  <path d="M72.4585 85.3793C70.9518 85.5326 71.3635 88.5417 72.7607 88.4015C74.1579 88.2614 73.7243 85.2523 72.4585 85.3793Z" fill="#263238"/>
  <path d="M78.7613 85.1122C78.7613 85.0771 78.8401 85.1472 78.8445 85.1866C78.9453 86.1196 79.2168 87.1752 80.1016 87.3766C80.1279 87.3766 80.1322 87.4292 80.1016 87.4292C79.0504 87.4204 78.7044 86.0145 78.7613 85.1122Z" fill="#263238"/>
  <path d="M79.4619 84.026C80.9467 83.7062 81.4767 86.6978 80.1014 86.9912C78.7261 87.2847 78.218 84.2931 79.4619 84.026Z" fill="#263238"/>
  <path d="M71.0481 84.534C71.4275 84.3629 71.7974 84.1714 72.1562 83.9603C72.5756 83.8155 72.9348 83.535 73.1767 83.1631C73.2297 83.0323 73.2383 82.8877 73.2011 82.7516C73.1639 82.6155 73.083 82.4954 72.9709 82.4097C72.7207 82.2747 72.4391 82.2088 72.155 82.2188C71.8709 82.2288 71.5947 82.3143 71.3547 82.4667C70.823 82.6986 70.3967 83.1202 70.1589 83.6493C70.1122 83.7733 70.1023 83.9081 70.1304 84.0376C70.1585 84.1671 70.2234 84.2857 70.3174 84.3792C70.4113 84.4727 70.5302 84.537 70.6599 84.5645C70.7895 84.5919 70.9243 84.5814 71.0481 84.534V84.534Z" fill="#263238"/>
  <path d="M80.189 82.379C79.7735 82.3515 79.3597 82.3018 78.9495 82.2301C78.5061 82.239 78.0722 82.1021 77.7143 81.8403C77.6179 81.7365 77.5587 81.6036 77.546 81.4625C77.5333 81.3213 77.5679 81.18 77.6442 81.0607C77.8302 80.8467 78.07 80.6864 78.3388 80.5963C78.6075 80.5062 78.8955 80.4896 79.1728 80.5482C79.7542 80.5768 80.3033 80.824 80.7102 81.2402C80.7989 81.3393 80.8567 81.4621 80.8766 81.5935C80.8965 81.725 80.8776 81.8594 80.8223 81.9802C80.767 82.1011 80.6776 82.2032 80.5651 82.2741C80.4526 82.3449 80.3219 82.3814 80.189 82.379V82.379Z" fill="#263238"/>
  <path d="M73.6321 94.4897C73.8862 94.6781 74.149 94.9277 74.5081 94.9277C74.8537 94.8742 75.1837 94.7472 75.4761 94.5554C75.5068 94.5554 75.5418 94.5554 75.5243 94.5992C75.4159 94.8004 75.2555 94.9687 75.0598 95.0866C74.864 95.2045 74.6402 95.2677 74.4118 95.2694C74.2147 95.2454 74.0292 95.1636 73.8787 95.0341C73.7283 94.9047 73.6196 94.7335 73.5664 94.5423C73.527 94.4897 73.5839 94.4635 73.6321 94.4897Z" fill="#263238"/>
  <path d="M74.2278 91.5639C74.515 91.9002 74.8688 92.1734 75.2668 92.3664C75.6648 92.5594 76.0984 92.6679 76.5404 92.6852C76.926 92.7048 77.3124 92.6694 77.688 92.5801C77.7607 92.5677 77.8324 92.5501 77.9026 92.5275L78.1041 92.4662C78.1521 92.45 78.1935 92.4185 78.222 92.3766C78.2504 92.3347 78.2644 92.2846 78.2617 92.234V92.234L78.2398 92.1377V92.0545C78.1566 91.3361 77.9376 90.2543 77.9376 90.2543C78.2179 90.3506 79.6371 90.7667 79.567 90.3944C78.9538 87.3284 78.2749 83.8945 77.0178 80.9599C77.0114 80.9373 76.9963 80.9181 76.9758 80.9066C76.9552 80.8951 76.931 80.8922 76.9083 80.8986C76.8857 80.905 76.8665 80.9201 76.855 80.9406C76.8435 80.9612 76.8406 80.9854 76.847 81.0081C77.32 83.9909 78.3099 86.8685 78.8311 89.8557C78.3262 89.6974 77.801 89.6133 77.2719 89.606C77.1755 89.6498 77.7318 91.6909 77.7449 92.015C77.7459 92.0267 77.7459 92.0384 77.7449 92.0501C76.5623 92.3698 75.6031 92.1289 74.3197 91.4807C74.2278 91.4237 74.1621 91.4982 74.2278 91.5639Z" fill="#263238"/>
  <path d="M77.2151 92.2735C76.8925 92.8399 76.4294 93.3135 75.8705 93.6488C75.5604 93.8231 75.2033 93.8951 74.8499 93.8547C74.079 93.7627 73.9739 93.0838 74.0221 92.4794C74.0547 92.1583 74.1253 91.8422 74.2323 91.5377C75.1227 92.0948 76.1678 92.3527 77.2151 92.2735V92.2735Z" fill="#263238"/>
  <path d="M75.8705 93.6488C75.5604 93.8231 75.2033 93.8951 74.8499 93.8547C74.079 93.7627 73.9739 93.0838 74.0221 92.4794C74.8324 92.4531 75.6953 92.8823 75.8705 93.6488Z" fill="#FF9ABB"/>
</svg>
